<svg xmlns="http://www.w3.org/2000/svg" fill="none" viewBox="0 0 16 16"><path fill="#92ca11" d="M9.5 6.53a3 3 0 0 0-.3-.27.6.6 0 0 0-1.03.44.61.61 0 0 0 .3.52l.15.15.05.05c.63.63.44 1.7-.19 2.34L5.8 12.44c-.63.63-1.65.63-2.28 0l-.05-.05a1.61 1.61 0 0 1 0-2.28l1.18-1.18a.66.66 0 0 0-.78-1.07l-.01.01a.66.66 0 0 0-.13.12L2.5 9.14a2.99 2.99 0 0 0 0 4.22l.05.05a2.99 2.99 0 0 0 4.22 0l2.68-2.69a2.91 2.91 0 0 0 .1-4.14l-.05-.05Z"/><path fill="#92ca11" d="m13.37 2.6-.05-.06a2.99 2.99 0 0 0-4.22 0L6.42 5.23C5.26 6.39 5.2 8.06 6.36 9.22l.05.05a2.8 2.8 0 0 0 .3.26.57.57 0 0 0 .8-.75c-.07-.16-.22-.27-.31-.37l-.05-.04c-.63-.63-.4-1.55.24-2.18l2.68-2.68a1.61 1.61 0 0 1 2.28 0l.05.05c.63.63.63 1.65 0 2.28l-1.18 1.18a.65.65 0 0 0 .73 1.09l.02-.02a.5.5 0 0 0 .15-.14l1.25-1.15a2.99 2.99 0 0 0 0-4.2Z"/></svg>
