<svg xmlns="http://www.w3.org/2000/svg" fill="none" viewBox="0 0 256 256"><path fill="#FCFCFC" d="M159.95 56.44a36.8 36.8 0 1 0-22.57 54.01l25.8 44.69a36.8 36.8 0 1 0 16.88-9.76l-25.8-44.68a36.82 36.82 0 0 0 5.69-44.27ZM66.64 217.97a36.8 36.8 0 1 0 0-73.6 36.8 36.8 0 0 0 0 73.6Z"/><mask id="a" width="161.05" height="256.95" x="78.62" y="-.36" fill="#000" maskUnits="userSpaceOnUse"><path fill="#fff" d="M78.62-.36h161.05v256.95H78.62z"/><path d="M79.48 10.14 96.35.4l141.71 245.47-16.86 9.73L79.48 10.14Z"/></mask><path fill="#C6CBD2" d="m79.14 10.34 1.97 3.4.69-.4-1.97-3.4-.7.4Zm5.9 10.23 3.94 6.82.7-.4-3.95-6.82-.69.4Zm7.87 13.63 3.94 6.82.7-.4-3.94-6.82-.7.4Zm7.88 13.64 3.93 6.82.7-.4-3.94-6.82-.7.4Zm7.87 13.64 3.94 6.82.7-.4-3.95-6.82-.69.4Zm7.87 13.63 3.94 6.82.7-.4-3.94-6.82-.7.4Zm7.88 13.64 3.93 6.82.7-.4-3.94-6.82-.7.4Zm7.87 13.64 3.94 6.82.69-.4-3.94-6.82-.69.4Zm7.87 13.63 3.94 6.82.7-.4-3.94-6.82-.7.4Zm7.88 13.64 3.93 6.82.7-.4-3.94-6.82-.7.4Zm7.87 13.64 3.94 6.82.69-.4-3.94-6.82-.69.4Zm7.87 13.63 3.94 6.82.7-.4-3.94-6.82-.7.4Zm7.88 13.64 3.93 6.82.7-.4-3.94-6.82-.7.4Zm7.87 13.64 3.94 6.82.69-.4-3.94-6.82-.7.4Zm7.87 13.63 3.94 6.82.7-.4-3.94-6.82-.7.4Zm7.88 13.64 3.93 6.82.7-.4-3.94-6.82-.7.4Zm7.87 13.64 3.94 6.82.69-.4-3.94-6.82-.7.4Zm7.87 13.63 3.94 6.82.7-.4-3.94-6.82-.7.4Zm7.88 13.64 1.96 3.41.7-.4-1.97-3.4-.7.4Zm19.52-6.72-1.97-3.41-.7.4 1.97 3.4.7-.4Zm-5.9-10.23-3.94-6.82-.7.4 3.94 6.82.7-.4Zm-7.88-13.64-3.94-6.82-.69.4 3.94 6.82.69-.4Zm-7.87-13.64-3.94-6.81-.7.4 3.94 6.81.7-.4Zm-7.88-13.63-3.93-6.82-.7.4 3.94 6.82.7-.4Zm-7.87-13.64-3.94-6.82-.69.4 3.94 6.82.7-.4Zm-7.87-13.64-3.94-6.81-.7.4 3.94 6.81.7-.4Zm-7.88-13.63-3.93-6.82-.7.4 3.94 6.82.7-.4Zm-7.87-13.64-3.93-6.82-.7.4 3.94 6.82.7-.4Zm-7.87-13.64-3.94-6.81-.7.4 3.94 6.81.7-.4Zm-7.88-13.63-3.93-6.82-.7.4 3.94 6.82.7-.4Zm-7.87-13.64-3.94-6.82-.69.4 3.94 6.82.7-.4Zm-7.87-13.64-3.94-6.81-.7.4 3.95 6.81.69-.4Zm-7.87-13.63-3.94-6.82-.7.4 3.94 6.82.7-.4Zm-7.88-13.64-3.93-6.82-.7.4 3.94 6.82.7-.4Zm-7.87-13.64-3.94-6.81-.69.4 3.94 6.81.69-.4ZM114.4 30.9l-3.94-6.82-.7.4 3.94 6.82.7-.4Zm-7.88-13.64-3.93-6.82-.7.4 3.94 6.82.7-.4ZM98.66 3.61 96.69.21l-.7.4L97.98 4l.69-.4Zm-19.87 6.93 1.97 3.4 1.38-.8-1.96-3.4-1.39.8Zm5.9 10.23 3.94 6.82 1.39-.8-3.94-6.82-1.38.8Zm7.88 13.63 3.94 6.82 1.38-.8-3.94-6.82-1.38.8Zm7.87 13.64 3.94 6.82 1.38-.8-3.93-6.82-1.39.8Zm7.88 13.64 3.93 6.82 1.39-.8-3.94-6.82-1.39.8Zm7.87 13.63 3.93 6.82 1.39-.8-3.94-6.82-1.38.8Zm7.87 13.64 3.94 6.82 1.38-.8-3.93-6.82-1.39.8Zm7.87 13.64 3.94 6.82 1.39-.8-3.94-6.82-1.39.8Zm7.88 13.63 3.93 6.82 1.39-.8-3.94-6.82-1.38.8Zm7.87 13.64 3.94 6.82 1.38-.8-3.93-6.82-1.39.8Zm7.87 13.64 3.94 6.82 1.39-.8-3.94-6.82-1.39.8Zm7.88 13.63 3.93 6.82 1.39-.8-3.94-6.82-1.38.8Zm7.87 13.64 3.94 6.82 1.38-.8-3.94-6.82-1.38.8Zm7.87 13.64 3.94 6.82 1.38-.8-3.93-6.82-1.39.8Zm7.88 13.63 3.93 6.82 1.39-.8-3.94-6.82-1.38.8Zm7.87 13.64 3.94 6.82 1.38-.8-3.94-6.82-1.38.8Zm7.87 13.64 3.94 6.82 1.38-.8-3.93-6.82-1.39.8Zm7.88 13.63 3.93 6.82 1.39-.8-3.94-6.82-1.39.8Zm7.87 13.64 1.97 3.41 1.38-.8-1.97-3.4-1.38.8Zm20.21-7.13-1.96-3.4-1.39.8 1.97 3.4 1.38-.8Zm-5.9-10.22-3.94-6.82-1.38.8 3.93 6.82 1.39-.8Zm-7.87-13.64-3.94-6.82-1.39.8 3.94 6.82 1.39-.8Zm-7.88-13.64-3.93-6.81-1.39.8 3.94 6.81 1.38-.8Zm-7.87-13.63-3.94-6.82-1.38.8 3.93 6.82 1.39-.8Zm-7.87-13.64-3.94-6.82-1.38.8 3.93 6.82 1.39-.8Zm-7.88-13.64-3.93-6.81-1.39.8 3.94 6.81 1.38-.8Zm-7.87-13.63-3.94-6.82-1.38.8 3.94 6.82 1.38-.8Zm-7.87-13.64-3.94-6.82-1.39.8 3.94 6.82 1.39-.8Zm-7.88-13.64-3.93-6.81-1.39.8 3.94 6.81 1.38-.8ZM162 112.51l-3.94-6.82-1.38.8 3.94 6.82 1.38-.8Zm-7.87-13.64-3.94-6.82-1.38.8 3.93 6.82 1.39-.8Zm-7.88-13.64-3.93-6.81-1.39.8 3.94 6.81 1.38-.8Zm-7.87-13.63-3.94-6.82-1.38.8L137 72.4l1.38-.8Zm-7.87-13.64-3.94-6.82-1.38.8 3.93 6.82 1.39-.8Zm-7.87-13.64-3.94-6.81-1.39.8 3.94 6.81 1.39-.8Zm-7.88-13.63-3.93-6.82-1.39.8 3.94 6.82 1.38-.8Zm-7.87-13.64-3.94-6.82-1.38.8 3.93 6.82 1.39-.8ZM99.01 3.41 97.04.01l-1.39.8 1.97 3.4 1.39-.8Z" mask="url(#a)"/><path stroke="#C6CBD2" stroke-dasharray="8 8" stroke-width=".8" d="M240.96 143.75h-102.4m102.4 74.45h-102.4m88.05 14V129.8m-74.45 102.4V129.8M66.6 197v-32M83 181.4H51m67.2-37.45H15.8m102.4 74.45H15.8m88.05 14V130M29.4 232.4V130m150.25-92.38H77.25m102.4 74.45H77.25m88.05 14V23.67m-74.45 102.4V23.67"/></svg>