<svg xmlns="http://www.w3.org/2000/svg" fill="none" viewBox="0 0 57 97"><path fill="#FCFCFC" d="M30.84 19.1a2.7 2.7 0 1 0-1.65 3.96l1.89 3.28a2.69 2.69 0 0 0 1.91 4.59 2.7 2.7 0 1 0-.68-5.3l-1.89-3.28a2.7 2.7 0 0 0 .42-3.24ZM24 30.94a2.7 2.7 0 1 0 0-5.4 2.7 2.7 0 0 0 0 5.4Zm5.5 14.91 4.77-10H22.73l4.77 10h2Zm0 17.7v-18.7h-2v18.7h2Z"/><path fill="#FAFAFA" d="M18.66 68.94h-1.82v-1.06h2.95v8.68h-1.13v-7.62Zm5.59 7.76c-.6 0-1.11-.11-1.55-.35a2.65 2.65 0 0 1-1.38-2.5h1.16c0 .56.16 1 .48 1.32.32.32.76.48 1.31.48a1.78 1.78 0 0 0 1.7-.92c.15-.3.23-.65.23-1.04 0-.38-.07-.7-.23-1-.15-.3-.37-.52-.66-.7a1.97 1.97 0 0 0-1.03-.24c-.36 0-.7.08-1.02.24-.32.15-.58.35-.78.6l-1-.26 1.06-4.45h4.35v1.08h-3.92l.54-.48-.8 3.23-.4.08c.23-.34.53-.6.92-.78.38-.18.8-.27 1.27-.27a3 3 0 0 1 1.53.38c.44.25.77.6 1.01 1.03.24.44.36.94.36 1.5 0 .6-.13 1.12-.4 1.59-.27.45-.64.81-1.11 1.08a3.4 3.4 0 0 1-1.64.38Zm4.4 2.49v-8.5h1.02l.08 1.06a2 2 0 0 1 .85-.92c.39-.2.81-.3 1.28-.3A2.47 2.47 0 0 1 34.27 72c.22.44.33.97.33 1.57 0 .6-.1 1.14-.32 1.61-.21.47-.52.84-.93 1.12-.4.27-.89.4-1.47.4-.48 0-.9-.1-1.26-.28-.37-.2-.65-.47-.84-.83v3.59h-1.13Zm1.14-5.56c0 .4.07.75.21 1.07.16.31.37.55.64.73.28.18.61.26 1 .26.38 0 .7-.08.98-.26.27-.18.48-.43.62-.74.16-.32.23-.67.23-1.06 0-.4-.07-.77-.23-1.08a1.7 1.7 0 0 0-.62-.73c-.27-.18-.6-.27-.98-.27-.39 0-.72.1-1 .27-.27.17-.48.42-.64.73a2.6 2.6 0 0 0-.21 1.08Zm6.42 2.93h-1.3l2.06-2.9-2.05-2.97h1.31l1.5 2.18 1.44-2.18h1.29l-2.04 2.96 2 2.9h-1.3l-1.47-2.14-1.44 2.15Z"/></svg>