<svg xmlns="http://www.w3.org/2000/svg" fill="none" viewBox="0 0 584 246"><path fill="#FCFCFC" d="m355 6.56 5 2.39V3.17l-5 2.39v1Zm-41 0h41.5v-1H314v1Zm-85-1-5-2.39v5.78l5-2.4v-1Zm-.5 1H270v-1h-41.5v1Z"/><path fill="#FAFAFA" d="M278.15 2.94h-1.83V1.88h2.96v8.68h-1.13V2.94Zm2.71 3.29c0-.9.15-1.68.44-2.36.3-.68.7-1.2 1.24-1.58a3.17 3.17 0 0 1 1.9-.58c.73 0 1.36.2 1.88.58.54.38.95.9 1.24 1.58.3.68.44 1.46.44 2.36 0 .9-.14 1.69-.43 2.36-.28.67-.69 1.2-1.22 1.57-.53.37-1.17.55-1.91.55a3.3 3.3 0 0 1-1.92-.55 3.6 3.6 0 0 1-1.24-1.57 6.12 6.12 0 0 1-.42-2.36Zm1.17 0c0 .7.1 1.32.29 1.84.19.52.46.9.81 1.18.36.27.8.4 1.3.4.51 0 .94-.13 1.3-.4.37-.27.64-.66.82-1.18.2-.52.29-1.13.29-1.84 0-.72-.1-1.34-.29-1.85a2.47 2.47 0 0 0-.81-1.19c-.37-.28-.8-.42-1.3-.42-.51 0-.95.14-1.3.42-.36.27-.63.67-.82 1.19-.2.51-.3 1.13-.3 1.85Zm7.15 0c0-.9.15-1.68.44-2.36.3-.68.7-1.2 1.24-1.58a3.17 3.17 0 0 1 1.9-.58c.73 0 1.36.2 1.88.58.54.38.95.9 1.24 1.58.3.68.44 1.46.44 2.36 0 .9-.14 1.69-.43 2.36-.28.67-.69 1.2-1.22 1.57-.53.37-1.17.55-1.91.55a3.3 3.3 0 0 1-1.92-.55 3.6 3.6 0 0 1-1.24-1.57 6.12 6.12 0 0 1-.42-2.36Zm1.17 0c0 .7.1 1.32.29 1.84.19.52.46.9.81 1.18.36.27.8.4 1.31.4.5 0 .94-.13 1.3-.4.36-.27.63-.66.81-1.18.2-.52.29-1.13.29-1.84 0-.72-.1-1.34-.29-1.85a2.47 2.47 0 0 0-.81-1.19c-.36-.28-.8-.42-1.3-.42-.51 0-.95.14-1.3.42-.36.27-.63.67-.82 1.19-.2.51-.3 1.13-.3 1.85Zm11.45-2.3c0 .43-.1.8-.29 1.14a2.03 2.03 0 0 1-1.9 1.07c-.43 0-.8-.09-1.13-.27a2.12 2.12 0 0 1-1.06-1.94c0-.43.1-.81.28-1.15a2.17 2.17 0 0 1 1.9-1.07c.44 0 .82.1 1.14.3.33.18.59.44.77.77.2.34.29.72.29 1.15Zm-.92 0c0-.39-.12-.7-.35-.94a1.2 1.2 0 0 0-.93-.38c-.36 0-.67.13-.9.38a1.3 1.3 0 0 0-.36.94c0 .39.12.7.35.95.24.24.55.36.91.36.38 0 .68-.12.92-.36.24-.25.36-.56.36-.95Zm5.5-2.04-6.6 8.67h-1.15l6.59-8.67h1.15Zm1.23 6.62c0 .42-.1.8-.29 1.14a2.03 2.03 0 0 1-1.9 1.06c-.43 0-.8-.09-1.14-.27a2.2 2.2 0 0 1-1.06-1.93 2.08 2.08 0 0 1 1.06-1.92c.33-.2.7-.3 1.13-.3.43 0 .81.1 1.14.3.33.18.59.44.77.78.2.32.29.7.29 1.14Zm-.94 0c0-.4-.11-.71-.35-.95a1.2 1.2 0 0 0-.9-.37c-.38 0-.69.12-.92.37a1.3 1.3 0 0 0-.35.95c0 .38.12.7.35.94.23.24.54.36.91.36.38 0 .68-.12.91-.36.24-.24.35-.56.35-.94Z"/><g clip-path="url(#a)"><path fill="#FCFCFC" d="M313.3 73.75a24.53 24.53 0 1 0-15.05 36l17.2 29.8a24.53 24.53 0 1 0 11.25-6.5l-17.2-29.79a24.54 24.54 0 0 0 3.8-29.51Zm-62.2 107.69a24.53 24.53 0 1 0-.01-49.07 24.53 24.53 0 0 0 0 49.07Z"/><mask id="b" fill="#fff"><path d="M190 19.06h34v205h-34v-205Z"/></mask><path fill="gray" fill-opacity=".08" d="M190 19.06h34v205h-34v-205Z"/><path fill="#363D4A" d="M223 19.06v205h2v-205h-2Z" mask="url(#b)"/><mask id="c" fill="#fff"><path d="M360 19.06h34v205h-34v-205Z"/></mask><path fill="gray" fill-opacity=".08" d="M360 19.06h34v205h-34v-205Z"/><path fill="#363D4A" d="M361 224.06v-205h-2v205h2Z" mask="url(#c)"/><mask id="d" fill="#fff"><path d="M394.6 189.56v34h-205v-34h205Z"/></mask><path fill="gray" fill-opacity=".08" d="M394.6 189.56v34h-205v-34h205Z"/><path fill="#363D4A" d="M189.6 190.56h205v-2h-205v2Z" mask="url(#d)"/><mask id="e" fill="#fff"><path d="M394.4 19.06v34h-205v-34h205Z"/></mask><path fill="gray" fill-opacity=".08" d="M394.4 19.06v34h-205v-34h205Z"/><path fill="#363D4A" d="M394.4 52.06h-205v2h205v-2Z" mask="url(#e)"/><path fill="#828282" d="m212.83 30.55-11.43 11.4-1.23-1.23 11.42-11.4 1.24 1.23Zm-11.4-1.23 11.4 11.4-1.24 1.23-11.4-11.4 1.24-1.23Zm11.4 172.24-11.43 11.4-1.23-1.24 11.42-11.4 1.24 1.24Zm-11.4-1.24 11.4 11.4-1.24 1.23-11.4-11.4 1.24-1.23Zm182.4 1.24-11.43 11.4-1.23-1.24 11.42-11.4 1.24 1.24Zm-11.4-1.24 11.4 11.4-1.24 1.23-11.4-11.4 1.24-1.23Zm11-169.77L372 41.95l-1.23-1.23 11.42-11.4 1.24 1.23Zm-11.4-1.23 11.4 11.4-1.24 1.23-11.4-11.4 1.24-1.23Z"/></g><path fill="#FCFCFC" d="m389 237.35 5 2.4v-5.78l-5 2.38v1Zm-77 0h77.5v-1H312v1Zm-117-1-5-2.38v5.77l5-2.39v-1Zm-.5 1H272v-1h-77.5v1Z"/><path fill="#FAFAFA" d="M278.79 233.73h-1.83v-1.05h2.96v8.67h-1.13v-7.62Zm5.58 7.77c-.6 0-1.1-.12-1.55-.35a2.65 2.65 0 0 1-1.38-2.5h1.17c0 .55.16 1 .48 1.31.32.32.75.48 1.3.48.4 0 .74-.08 1.03-.24.28-.17.5-.4.67-.68.16-.3.24-.64.24-1.03 0-.38-.08-.71-.23-1-.15-.3-.37-.53-.66-.7a1.97 1.97 0 0 0-1.03-.25c-.36 0-.7.08-1.02.24-.32.15-.58.35-.78.6l-1-.25 1.06-4.45H287v1.08h-3.91l.54-.48-.8 3.23-.4.08c.22-.34.53-.6.91-.78.38-.18.8-.28 1.27-.28.6 0 1.1.13 1.54.39.43.25.77.59 1 1.03.25.44.37.94.37 1.49 0 .6-.14 1.13-.41 1.6-.26.45-.63.81-1.1 1.07-.47.26-1.02.39-1.65.39Zm4.18-4.48c0-.9.14-1.68.43-2.35.3-.68.7-1.2 1.25-1.58a3.17 3.17 0 0 1 1.9-.58c.72 0 1.35.2 1.88.58.53.37.94.9 1.23 1.58.3.67.44 1.46.44 2.35 0 .9-.14 1.7-.43 2.37-.28.67-.69 1.2-1.22 1.57-.53.37-1.16.55-1.9.55a3.3 3.3 0 0 1-1.93-.55 3.6 3.6 0 0 1-1.24-1.57 6.12 6.12 0 0 1-.41-2.37Zm1.16 0c0 .71.1 1.33.29 1.85.19.51.46.9.81 1.18.36.27.8.4 1.31.4.5 0 .94-.13 1.3-.4.36-.28.63-.67.81-1.18.2-.52.3-1.14.3-1.85 0-.72-.1-1.33-.3-1.85a2.47 2.47 0 0 0-.81-1.18c-.36-.28-.8-.42-1.3-.42-.51 0-.95.14-1.3.42-.36.27-.63.66-.82 1.18-.2.52-.3 1.13-.3 1.85Zm11.45-2.29c0 .42-.1.8-.29 1.14a2.03 2.03 0 0 1-1.9 1.07c-.43 0-.8-.1-1.13-.28a2.12 2.12 0 0 1-1.06-1.93c0-.43.1-.82.28-1.15.19-.34.45-.6.78-.78.33-.2.7-.29 1.13-.29.43 0 .8.1 1.13.29.33.18.59.44.77.78.2.33.3.72.3 1.15Zm-.92 0c0-.4-.12-.7-.35-.95a1.2 1.2 0 0 0-.93-.37c-.36 0-.67.12-.9.37a1.3 1.3 0 0 0-.36.95c0 .38.12.7.35.95.24.24.55.36.91.36.38 0 .69-.12.92-.36.24-.25.36-.57.36-.95Zm5.5-2.04-6.6 8.66H298l6.6-8.66h1.14Zm1.23 6.61c0 .43-.1.8-.29 1.14a2.03 2.03 0 0 1-1.9 1.07c-.43 0-.8-.1-1.13-.28-.33-.19-.6-.45-.78-.79-.2-.33-.3-.71-.3-1.14 0-.43.1-.81.3-1.14.19-.33.45-.6.77-.78.33-.19.7-.29 1.13-.29.44 0 .81.1 1.14.3a2.15 2.15 0 0 1 1.06 1.91Zm-.94 0c0-.39-.11-.7-.34-.95a1.2 1.2 0 0 0-.92-.37c-.37 0-.68.13-.9.37a1.3 1.3 0 0 0-.36.95c0 .39.12.7.35.95.23.24.54.36.91.36.38 0 .68-.12.92-.36.23-.25.34-.56.34-.95Z"/><defs><clipPath id="a"><path fill="#fff" d="M189.6 19.06h204.8v204.8H189.6z"/></clipPath></defs></svg>