<svg xmlns="http://www.w3.org/2000/svg" fill="none" viewBox="0 0 105 62"><path fill="#FCFCFC" d="M27.8 18.72a3.23 3.23 0 1 0-1.99 4.74l2.27 3.92a3.22 3.22 0 0 0 2.3 5.5 3.23 3.23 0 1 0-.82-6.35l-2.27-3.93c1-1 1.25-2.6.5-3.88ZM19.6 32.9a3.23 3.23 0 1 0 0-6.46 3.23 3.23 0 0 0 0 6.46Zm23.95-3.75c-.63 0-1.23-.07-1.81-.2a5.5 5.5 0 0 1-1.6-.69c-.47-.3-.86-.7-1.18-1.18l1.4-1.62c.23.4.52.75.87 1.01a4.12 4.12 0 0 0 3.17.68c.22-.06.4-.17.53-.3a.83.83 0 0 0 .19-.55.82.82 0 0 0-.22-.6 1.46 1.46 0 0 0-.65-.4c-.29-.1-.65-.2-1.1-.29l-.96-.2a8 8 0 0 1-1.1-.31 3.6 3.6 0 0 1-.96-.52c-.29-.23-.51-.5-.68-.83a2.83 2.83 0 0 1-.24-1.2 2.63 2.63 0 0 1 1.83-2.62 5.78 5.78 0 0 1 4.31.16c.73.33 1.3.8 1.72 1.39l-1.43 1.6a3.55 3.55 0 0 0-2.94-1.6c-.26.01-.49.05-.68.13a.97.97 0 0 0-.46.31.7.7 0 0 0-.16.47c0 .37.14.63.44.8.3.17.71.31 1.23.43l1.12.26c.46.11.88.25 1.25.4.39.16.72.35 1 .58.27.23.48.5.63.83.15.32.22.7.22 1.15 0 .63-.16 1.16-.49 1.6-.32.43-.77.76-1.33.98a5.3 5.3 0 0 1-1.92.33Zm7.45 0c-.53 0-.97-.1-1.33-.3-.34-.2-.6-.47-.76-.81a2.67 2.67 0 0 1-.25-1.18V20.9l2.1-1.11v6.67c0 .3.07.5.2.62.14.12.3.18.52.18.22 0 .43-.07.62-.22.2-.16.35-.34.45-.55l.61 1.73a2.73 2.73 0 0 1-2.16.92Zm1.78-5.78h-5.2v-1.6h5.2v1.6Zm4.15 5.78a3.3 3.3 0 0 1-3.18-1.82 4.18 4.18 0 0 1-.44-1.95c0-.74.15-1.39.44-1.95a3.2 3.2 0 0 1 1.26-1.33 3.75 3.75 0 0 1 1.92-.48c.74 0 1.4.16 1.95.48.56.32.98.76 1.28 1.33.3.56.46 1.21.46 1.95 0 .73-.15 1.38-.46 1.95-.3.57-.72 1.02-1.28 1.35-.56.31-1.2.47-1.95.47Zm.03-1.72c.3 0 .57-.06.8-.2.22-.14.4-.36.52-.65.13-.3.2-.7.2-1.2 0-.49-.07-.88-.2-1.18-.12-.3-.3-.53-.53-.66a1.5 1.5 0 0 0-.8-.21c-.29 0-.55.07-.78.2-.22.14-.4.37-.53.67-.13.3-.2.69-.2 1.18 0 .5.07.9.2 1.2.13.3.3.51.53.65.23.14.49.2.79.2ZM63.89 29h-2.1v-7.24h2.1V29Zm0-3.82-.06-.76a5.06 5.06 0 0 1 .67-1.9c.2-.28.44-.5.72-.65.29-.17.62-.25 1-.25.55 0 .96.16 1.23.48.29.32.43.76.43 1.33a3.36 3.36 0 0 1-.41 1.69h-2.04c.14-.14.26-.32.35-.55.11-.23.17-.44.17-.65 0-.2-.05-.38-.15-.52-.1-.13-.27-.2-.5-.2-.24 0-.47.08-.68.25-.22.15-.4.38-.53.68-.13.3-.2.64-.2 1.05Zm6.97-4.27h-2.11v-1.8h2.1v1.8Zm0 8.09h-2.11v-7.24h2.1V29Zm8.24 0H77v-4.31a2 2 0 0 0-.24-1.05c-.14-.26-.46-.38-.96-.38-.33 0-.6.06-.8.19a1.1 1.1 0 0 0-.4.57c-.09.26-.13.58-.13.98l-.05-.76c.05-.44.16-.86.34-1.27.17-.4.43-.72.78-.97.35-.26.8-.38 1.36-.38.69 0 1.23.2 1.62.6.4.4.6.98.6 1.73V29Zm-4.64 0h-2.1v-7.24h2.1V29Zm7.73 2.66c-.37 0-.71-.05-1.04-.15a3.32 3.32 0 0 1-1.49-.84l.84-1.77c.23.26.48.48.74.65.28.16.57.25.89.25.28 0 .5-.07.68-.2.18-.11.32-.34.44-.69l.28-.77.56.39h-1.98l-2.34-6.77h2.33l1.03 3.42.54 2.42.54-2.42 1.02-3.42h2.38L85 29.44c-.29.8-.66 1.37-1.12 1.7-.46.35-1.02.52-1.7.52Zm1.05 14.84 5 2.39V43.1l-5 2.39v1Zm-11 0h11.5v-1h-11.5v1Zm-51 0-5 2.39V43.1l5 2.39v1Zm11 0h-11.5v-1h11.5v1Z"/><path fill="#FAFAFA" d="M39.42 41.82h6.06v1.08h-6.06v-1.08Zm5.15.46.91.62-3.28 7.6h-1.23l3.6-8.22Zm7.33 8.2-5.86.02v-.9l2.8-2.41a6.58 6.58 0 0 0 1.43-1.47 2.22 2.22 0 0 0 .37-1.26c0-.54-.15-.96-.44-1.27-.3-.31-.7-.47-1.23-.47s-.97.19-1.3.56c-.31.36-.48.84-.49 1.46h-1.17c.01-.62.15-1.16.4-1.62a2.6 2.6 0 0 1 1.03-1.07c.44-.25.96-.38 1.54-.38.59 0 1.1.11 1.52.33.42.23.75.54.98.95a3.17 3.17 0 0 1 .24 2.32c-.08.27-.2.54-.38.81-.17.27-.4.54-.66.83-.28.28-.6.59-.99.93l-2.27 1.96-.4-.4h4.88v1.09Zm1.31 2.65v-8.5h1.02l.08 1.06c.2-.41.48-.71.86-.91.38-.21.8-.32 1.27-.32.56 0 1.04.14 1.45.4.4.26.72.62.94 1.08.22.46.33.98.33 1.58 0 .6-.1 1.14-.32 1.61-.2.47-.52.85-.93 1.12-.4.27-.89.4-1.47.4-.47 0-.9-.09-1.26-.28-.37-.2-.65-.47-.84-.83v3.59H53.2Zm1.14-5.56c0 .4.07.75.22 1.07.15.31.36.56.63.73.28.18.61.27 1 .27.38 0 .71-.1.98-.27.27-.18.48-.43.63-.74.15-.31.22-.67.22-1.06 0-.4-.07-.77-.22-1.08a1.7 1.7 0 0 0-.63-.73c-.27-.18-.6-.26-.98-.26-.39 0-.72.08-1 .26a1.8 1.8 0 0 0-.63.73c-.15.31-.22.67-.22 1.08Zm6.42 2.93h-1.3l2.06-2.9-2.04-2.97h1.3l1.5 2.19 1.45-2.19h1.28l-2.04 2.97 2 2.9h-1.3l-1.47-2.15-1.44 2.15Z"/></svg>