<svg xmlns="http://www.w3.org/2000/svg" fill="none" viewBox="0 0 584 207"><path fill="#FCFCFC" d="M194.26 78.24a13.08 13.08 0 1 0-8.03 19.2l9.17 15.88a13.08 13.08 0 1 0 6-3.47l-9.16-15.88a13.09 13.09 0 0 0 2.02-15.73Zm-33.17 57.42a13.08 13.08 0 1 0 0-26.16 13.08 13.08 0 0 0 0 26.16Zm96.98-13.89c-2.55 0-5-.28-7.35-.83a22.2 22.2 0 0 1-6.46-2.76 16.1 16.1 0 0 1-4.79-4.78l5.68-6.58a12.7 12.7 0 0 0 3.53 4.13 16.67 16.67 0 0 0 4.79 2.33 17 17 0 0 0 4.96.78c1.16 0 2.17-.12 3.05-.36.92-.28 1.63-.7 2.15-1.26.52-.55.78-1.3.78-2.2a3.3 3.3 0 0 0-.9-2.46 5.9 5.9 0 0 0-2.63-1.56 28.63 28.63 0 0 0-4.42-1.2l-3.89-.83a32.18 32.18 0 0 1-4.48-1.25 14.56 14.56 0 0 1-3.9-2.1 10.16 10.16 0 0 1-2.74-3.35 11.44 11.44 0 0 1-.96-4.9c0-2.63.66-4.82 1.97-6.58a12.11 12.11 0 0 1 5.44-4 19.8 19.8 0 0 1 7.48-1.38c3.75 0 7.08.68 9.99 2.03a16.81 16.81 0 0 1 6.93 5.62l-5.8 6.52a13.34 13.34 0 0 0-5.2-4.78 14.37 14.37 0 0 0-6.7-1.68c-1.03 0-1.95.16-2.75.48-.8.28-1.41.7-1.85 1.26a2.86 2.86 0 0 0-.66 1.91c0 1.48.6 2.55 1.8 3.23a19.6 19.6 0 0 0 4.96 1.74l4.54 1.07c1.88.44 3.57.98 5.09 1.62a15.2 15.2 0 0 1 4 2.33 9.2 9.2 0 0 1 2.57 3.35c.6 1.31.9 2.87.9 4.66 0 2.55-.66 4.7-1.97 6.46a12.3 12.3 0 0 1-5.38 4 21.48 21.48 0 0 1-7.78 1.32Zm30.17 0c-2.15 0-3.95-.4-5.38-1.2a7.5 7.5 0 0 1-3.11-3.28 10.82 10.82 0 0 1-1.02-4.79V88.4l8.55-4.48v27.03c0 1.2.26 2.03.78 2.51a3.1 3.1 0 0 0 2.1.72c.91 0 1.75-.3 2.5-.9a6.98 6.98 0 0 0 1.86-2.21l2.45 7c-.64.8-1.7 1.6-3.17 2.45a11.15 11.15 0 0 1-5.56 1.25Zm7.18-23.38h-21.05v-6.52h21.05v6.52Zm16.8 23.38a15.4 15.4 0 0 1-7.77-1.91 13.39 13.39 0 0 1-5.09-5.44 16.93 16.93 0 0 1-1.8-7.9c0-2.99.6-5.62 1.8-7.89 1.2-2.31 2.9-4.1 5.09-5.38a15.02 15.02 0 0 1 7.77-1.98c3.03 0 5.66.66 7.9 1.98 2.27 1.27 4 3.07 5.2 5.38a16.26 16.26 0 0 1 1.85 7.9c0 2.94-.62 5.58-1.85 7.89a13.16 13.16 0 0 1-5.2 5.44 15.65 15.65 0 0 1-7.9 1.91Zm.12-6.93c1.24 0 2.31-.28 3.23-.84a5.52 5.52 0 0 0 2.15-2.63c.52-1.24.78-2.85.78-4.85 0-1.99-.26-3.58-.78-4.78a5.5 5.5 0 0 0-2.15-2.7c-.92-.55-2-.83-3.23-.83-1.2 0-2.25.28-3.17.84a5.5 5.5 0 0 0-2.15 2.69c-.52 1.2-.78 2.79-.78 4.78 0 2 .26 3.61.78 4.85a5.52 5.52 0 0 0 2.15 2.63c.92.56 1.97.84 3.17.84Zm28.1 6.33h-8.56v-29.3h8.56v29.3Zm0-15.48-.24-3.05c.16-1.36.45-2.7.9-4.01a13.8 13.8 0 0 1 1.79-3.7c.8-1.12 1.77-2 2.93-2.64a7.9 7.9 0 0 1 4.06-1.02c2.2 0 3.85.66 4.97 1.98 1.15 1.27 1.73 3.07 1.73 5.38 0 1.56-.2 2.95-.6 4.19-.36 1.2-.72 2.07-1.07 2.63h-8.26a7.07 7.07 0 0 0 1.44-2.22c.44-.91.66-1.79.66-2.63 0-.83-.2-1.53-.6-2.09-.4-.56-1.08-.84-2.03-.84a4.4 4.4 0 0 0-2.75 1.02 6.93 6.93 0 0 0-2.16 2.75c-.52 1.2-.77 2.61-.77 4.25Zm28.2-17.29h-8.55v-7.3h8.55v7.3Zm0 32.77h-8.55v-29.3h8.55v29.3Zm33.38 0h-8.55v-17.46c0-1.8-.32-3.2-.96-4.24-.6-1.04-1.9-1.56-3.89-1.56-1.35 0-2.43.26-3.23.78a4.5 4.5 0 0 0-1.67 2.33 13.67 13.67 0 0 0-.48 3.95l-.24-3.05c.2-1.8.66-3.51 1.38-5.14a9.38 9.38 0 0 1 3.17-3.95 9.16 9.16 0 0 1 5.5-1.56c2.79 0 4.98.82 6.58 2.46 1.6 1.63 2.39 3.96 2.39 7v20.44Zm-18.78 0h-8.55v-29.3h8.55v29.3Zm31.28 10.77c-1.48 0-2.87-.2-4.19-.6a13.4 13.4 0 0 1-3.53-1.5 13 13 0 0 1-2.51-1.9l3.4-7.18a13.14 13.14 0 0 0 3 2.63 6.8 6.8 0 0 0 3.59 1.01c1.11 0 2.03-.26 2.75-.77.72-.48 1.31-1.42 1.8-2.81l1.13-3.11 2.27 1.55h-8.01l-9.51-27.39h9.45l4.18 13.82 2.16 9.8 2.2-9.8 4.13-13.82h9.63l-10.52 31.1c-1.16 3.23-2.67 5.52-4.55 6.88-1.83 1.4-4.12 2.09-6.87 2.09Z"/><path stroke="#363D4A" stroke-width=".26" d="M146.63 67.3h290.74v72.74H146.63z"/><mask id="a" fill="#fff"><path d="M110.17 30.74h36.4v145.6h-36.4V30.74Z"/></mask><path fill="gray" fill-opacity=".08" d="M110.17 30.74h36.4v145.6h-36.4V30.74Z"/><path fill="#363D4A" d="M145.26 30.74v145.6h2.6V30.74h-2.6Z" mask="url(#a)"/><mask id="b" fill="#fff"><path d="M436.86 30.74h36.4v145.6h-36.4V30.74Z"/></mask><path fill="gray" fill-opacity=".08" d="M436.86 30.74h36.4v145.6h-36.4V30.74Z"/><path fill="#363D4A" d="M438.15 176.34V30.74h-2.6v145.6h2.6Z" mask="url(#b)"/><mask id="c" fill="#fff"><path d="M473.25 139.94v36.4H110.18v-36.4h363.08Z"/></mask><path fill="gray" fill-opacity=".08" d="M473.25 139.94v36.4H110.18v-36.4h363.08Z"/><path fill="#363D4A" d="M110.17 141.24h363.08v-2.6H110.18v2.6Z" mask="url(#c)"/><mask id="d" fill="#fff"><path d="M473.25 30.74v36.4H110.18v-36.4h363.08Z"/></mask><path fill="gray" fill-opacity=".08" d="M473.25 30.74v36.4H110.18v-36.4h363.08Z"/><path fill="#363D4A" d="M473.25 65.84H110.18v2.6h363.08v-2.6Z" mask="url(#d)"/><path fill="#828282" d="m446.68 165.34 14.85-14.81 1.6 1.6-14.85 14.81-1.6-1.6Zm14.82 1.6-14.82-14.8 1.6-1.61 14.82 14.81-1.6 1.6Zm-342.16-1.6 14.85-14.81 1.6 1.6-14.85 14.81-1.6-1.6Zm14.82 1.6-14.82-14.8 1.6-1.61 14.82 14.81-1.6 1.6ZM464.08 41.73l-14.85 14.82-1.6-1.6 14.85-14.82 1.6 1.6Zm-14.82-1.6 14.82 14.82-1.6 1.6-14.82-14.82 1.6-1.6Zm-312.52 1.6-14.85 14.82-1.6-1.6 14.85-14.82 1.6 1.6Zm-14.82-1.6 14.82 14.82-1.6 1.6-14.82-14.82 1.6-1.6Z"/><path fill="#FAFAFA" d="m127.8 9.24-2.96-4.34h1.4l1.36 1.93a12.58 12.58 0 0 1 .92 1.52l2.3-3.45h1.35l-2.9 4.33 2.94 4.34h-1.4l-1.33-1.9a13.7 13.7 0 0 1-.95-1.53l-2.33 3.43h-1.38l2.98-4.33Z"/><path fill="#FCFCFC" d="m142 8.57 4.98-2.42.04 5.77L142 9.57v-1Zm.5 1-7.5.04v-1l7.5-.05v1Zm-27.5-1-4.98-2.42-.04 5.77L115 9.57v-1Zm-.5 1 7.5.04v-1l-7.5-.05v1Z"/><path fill="#FAFAFA" d="m127.8 198.44-2.96-4.34h1.4l1.36 1.93a12.58 12.58 0 0 1 .92 1.52l2.3-3.45h1.35l-2.9 4.33 2.94 4.34h-1.4l-1.33-1.9a13.7 13.7 0 0 1-.95-1.53l-2.33 3.43h-1.38l2.98-4.33Z"/><path fill="#FCFCFC" d="m142 197.77 4.98-2.42.04 5.77-5.02-2.35v-1Zm.5 1-7.5.04v-1l7.5-.05v1Zm-27.5-1-4.98-2.42-.04 5.77 5.02-2.35v-1Zm-.5 1 7.5.04v-1l-7.5-.05v1Z"/><path fill="#FAFAFA" d="M454.65 9.24 451.7 4.9h1.4l1.36 1.93a12.58 12.58 0 0 1 .92 1.52l2.3-3.45h1.35l-2.9 4.33 2.94 4.34h-1.4l-1.33-1.9a13.7 13.7 0 0 1-.95-1.53l-2.32 3.43h-1.38l2.97-4.33Z"/><path fill="#FCFCFC" d="m468.85 8.57 4.98-2.42.04 5.77-5.02-2.35v-1Zm.5 1-7.5.04v-1l7.5-.05v1Zm-27.5-1-4.98-2.42-.04 5.77 5.02-2.35v-1Zm-.5 1 7.5.04v-1l-7.5-.05v1Z"/><path fill="#FAFAFA" d="m494.9 48.9-2.96-4.35h1.4l1.36 1.93a12.58 12.58 0 0 1 .92 1.52l2.3-3.45h1.35l-2.9 4.33 2.94 4.34h-1.4l-1.33-1.9a13.7 13.7 0 0 1-.95-1.53l-2.32 3.43h-1.38l2.97-4.33Z"/><path fill="#FCFCFC" d="m495.1 35.23-2.42-4.99 5.77-.03-2.36 5.01h-1Zm1-.5.04 7.5h-1l-.05-7.5h1Zm-1 27.49-2.42 4.99 5.77.03-2.36-5.01h-1Zm1 .5.04-7.5h-1l-.05 7.5h1Z"/><path fill="#FAFAFA" d="m87.7 48.9-2.96-4.35h1.4l1.36 1.93a12.58 12.58 0 0 1 .92 1.52l2.3-3.45h1.35l-2.9 4.33 2.93 4.34h-1.39l-1.33-1.9a13.7 13.7 0 0 1-.95-1.53l-2.33 3.43h-1.38l2.98-4.33Z"/><path fill="#FCFCFC" d="m87.9 35.23-2.42-4.99 5.77-.03-2.36 5.01h-1Zm1-.5.04 7.5h-1l-.05-7.5h1Zm-1 27.49-2.42 4.99 5.77.03-2.36-5.01h-1Zm1 .5.04-7.5h-1l-.05 7.5h1Z"/><path fill="#FAFAFA" d="m87.99 108.56-5.86.01v-.9l2.8-2.4c.35-.3.64-.57.88-.81.23-.24.41-.46.55-.66a2.22 2.22 0 0 0 .37-1.26c0-.55-.15-.97-.44-1.27-.3-.32-.7-.47-1.23-.47s-.97.18-1.3.55c-.31.36-.48.85-.49 1.46H82.1c.01-.61.15-1.15.4-1.62a2.5 2.5 0 0 1 1.03-1.06c.44-.26.96-.39 1.54-.39.59 0 1.1.11 1.52.34.42.22.75.54.98.95a3.17 3.17 0 0 1 .24 2.32c-.08.26-.2.54-.38.8-.17.27-.4.55-.66.84-.28.28-.6.58-.99.92l-2.27 1.97-.4-.41H88v1.1Zm3.66-4.32L88.7 99.9h1.4l1.36 1.93a12.58 12.58 0 0 1 .92 1.52l2.3-3.45h1.35l-2.9 4.33 2.94 4.34h-1.4l-1.33-1.9a13.7 13.7 0 0 1-.95-1.53l-2.32 3.43h-1.38l2.97-4.33Z"/><path fill="#FCFCFC" d="m88.87 73.72 2.38-5h-5.77l2.39 5h1Zm-1-.5.03 23.72h1l-.03-23.72h-1Zm.03 60.5-2.42 4.99 5.77.03-2.36-5.01h-1Zm1 .5.13-22.5h-1l-.14 22.5h1Z"/><path fill="#FAFAFA" d="m494.9 158.9-2.96-4.35h1.4l1.36 1.93a12.58 12.58 0 0 1 .92 1.52l2.3-3.45h1.35l-2.9 4.33 2.94 4.34h-1.4l-1.33-1.9a13.7 13.7 0 0 1-.95-1.53l-2.32 3.43h-1.38l2.97-4.33Z"/><path fill="#FCFCFC" d="m495.1 145.23-2.42-4.99 5.77-.03-2.36 5.01h-1Zm1-.5.04 7.5h-1l-.05-7.5h1Zm-1 27.49-2.42 4.99 5.77.03-2.36-5.01h-1Zm1 .5.04-7.5h-1l-.05 7.5h1Z"/><path fill="#FAFAFA" d="m87.7 158.9-2.96-4.35h1.4l1.36 1.93a12.58 12.58 0 0 1 .92 1.52l2.3-3.45h1.35l-2.9 4.33 2.93 4.34h-1.39l-1.33-1.9a13.7 13.7 0 0 1-.95-1.53l-2.33 3.43h-1.38l2.98-4.33Z"/><path fill="#FCFCFC" d="m87.9 145.23-2.42-4.99 5.77-.03-2.36 5.01h-1Zm1-.5.04 7.5h-1l-.05-7.5h1Zm-1 27.49-2.42 4.99 5.77.03-2.36-5.01h-1Zm1 .5.04-7.5h-1l-.05 7.5h1Z"/><path fill="#FAFAFA" d="m454.65 198.44-2.96-4.34h1.4l1.36 1.93a12.58 12.58 0 0 1 .92 1.52l2.3-3.45h1.35l-2.9 4.33 2.94 4.34h-1.4l-1.33-1.9a13.7 13.7 0 0 1-.95-1.53l-2.32 3.43h-1.38l2.97-4.33Z"/><path fill="#FCFCFC" d="m468.85 197.77 4.98-2.42.04 5.77-5.02-2.35v-1Zm.5 1-7.5.04v-1l7.5-.05v1Zm-27.5-1-4.98-2.42-.04 5.77 5.02-2.35v-1Zm-.5 1 7.5.04v-1l-7.5-.05v1Z"/></svg>