<svg xmlns="http://www.w3.org/2000/svg" fill="none" viewBox="0 0 446 134"><path fill="#FCFCFC" d="M175.59 93.63c-3.69 0-7.23-.4-10.62-1.21a32.1 32.1 0 0 1-9.33-3.97 23.23 23.23 0 0 1-6.9-6.91l8.2-9.5a18.34 18.34 0 0 0 5.1 5.96 24.05 24.05 0 0 0 6.9 3.37c2.47.74 4.86 1.12 7.16 1.12 1.67 0 3.14-.17 4.4-.52 1.33-.4 2.37-1 3.12-1.81a4.5 4.5 0 0 0 1.12-3.2c0-1.5-.43-2.67-1.3-3.54a8.53 8.53 0 0 0-3.8-2.24 40.53 40.53 0 0 0-6.38-1.73l-5.62-1.2a46.67 46.67 0 0 1-6.47-1.82 21.06 21.06 0 0 1-5.61-3.02c-1.67-1.33-3-2.94-3.97-4.84a16.52 16.52 0 0 1-1.39-7.08c0-3.8.95-6.96 2.85-9.5a17.48 17.48 0 0 1 7.86-5.78 28.59 28.59 0 0 1 10.8-1.99c5.4 0 10.2.98 14.41 2.94a24.27 24.27 0 0 1 10.02 8.12l-8.38 9.4a19.24 19.24 0 0 0-7.51-6.9 20.76 20.76 0 0 0-9.67-2.42c-1.5 0-2.82.23-3.97.7-1.15.4-2.05 1-2.68 1.8a4.13 4.13 0 0 0-.95 2.77c0 2.13.87 3.68 2.6 4.66 1.78.98 4.16 1.81 7.16 2.5l6.56 1.56c2.7.63 5.15 1.4 7.34 2.33 2.24.92 4.17 2.04 5.78 3.37a13.3 13.3 0 0 1 3.72 4.83c.86 1.9 1.3 4.15 1.3 6.74 0 3.68-.96 6.79-2.86 9.32a17.76 17.76 0 0 1-7.77 5.79 31 31 0 0 1-11.22 1.9Zm43.56 0c-3.11 0-5.7-.58-7.78-1.73a10.83 10.83 0 0 1-4.49-4.75 15.6 15.6 0 0 1-1.46-6.9v-34.8l12.34-6.48V78c0 1.73.38 2.93 1.13 3.62.8.7 1.8 1.04 3.02 1.04 1.32 0 2.53-.43 3.62-1.3a10.07 10.07 0 0 0 2.68-3.19l3.54 10.1c-.92 1.15-2.45 2.33-4.58 3.54s-4.8 1.82-8.02 1.82Zm10.36-33.76h-30.4v-9.41h30.4v9.4Zm24.26 33.76c-4.26 0-8-.93-11.23-2.77a19.33 19.33 0 0 1-7.34-7.85 24.44 24.44 0 0 1-2.59-11.4c0-4.32.87-8.12 2.6-11.4a18.75 18.75 0 0 1 7.33-7.77 21.7 21.7 0 0 1 11.23-2.85c4.37 0 8.17.95 11.4 2.85a18.44 18.44 0 0 1 7.5 7.77 23.47 23.47 0 0 1 2.68 11.4c0 4.26-.89 8.06-2.68 11.4a18.99 18.99 0 0 1-7.5 7.85c-3.23 1.84-7.03 2.77-11.4 2.77Zm.17-10.02c1.78 0 3.34-.4 4.66-1.2a7.98 7.98 0 0 0 3.11-3.8c.75-1.8 1.12-4.12 1.12-7s-.37-5.18-1.12-6.9a7.95 7.95 0 0 0-3.1-3.9 8.79 8.79 0 0 0-4.67-1.2 8.7 8.7 0 0 0-4.58 1.2 7.95 7.95 0 0 0-3.1 3.9c-.75 1.72-1.13 4.02-1.13 6.9 0 2.88.38 5.2 1.13 7a8 8 0 0 0 3.1 3.8 8.7 8.7 0 0 0 4.58 1.2Zm40.56 9.15h-12.34v-42.3h12.34v42.3Zm0-22.36-.34-4.4c.23-1.96.66-3.89 1.3-5.79.63-1.95 1.5-3.74 2.58-5.35a12.7 12.7 0 0 1 4.23-3.8 11.4 11.4 0 0 1 5.88-1.47c3.16 0 5.55.95 7.16 2.85 1.67 1.84 2.5 4.43 2.5 7.77 0 2.25-.28 4.26-.86 6.05a15.6 15.6 0 0 1-1.55 3.8h-11.92c.81-.81 1.5-1.88 2.08-3.2a8.8 8.8 0 0 0 .95-3.8c0-1.2-.3-2.21-.87-3.02-.57-.8-1.55-1.2-2.93-1.2a6.4 6.4 0 0 0-3.97 1.46 10 10 0 0 0-3.11 3.97 15.34 15.34 0 0 0-1.13 6.13Zm40.73-24.95h-12.35V34.9h12.35v10.54Zm0 47.31h-12.35v-42.3h12.35v42.3Zm48.19 0h-12.35v-25.2c0-2.6-.46-4.64-1.38-6.14-.86-1.5-2.73-2.24-5.61-2.24-1.96 0-3.51.37-4.66 1.12a6.5 6.5 0 0 0-2.42 3.37c-.46 1.5-.7 3.4-.7 5.7l-.34-4.4c.3-2.6.95-5.07 1.99-7.43a13.54 13.54 0 0 1 4.57-5.7c2.08-1.5 4.73-2.25 7.95-2.25 4.03 0 7.2 1.18 9.5 3.54 2.3 2.36 3.45 5.73 3.45 10.1v29.53Zm-27.11 0h-12.35v-42.3h12.35v42.3Zm45.15 15.54c-2.13 0-4.14-.28-6.04-.86a19.4 19.4 0 0 1-5.1-2.16 18.77 18.77 0 0 1-3.62-2.76l4.92-10.36a18.97 18.97 0 0 0 4.32 3.8 9.81 9.81 0 0 0 5.18 1.46c1.61 0 2.93-.37 3.97-1.12 1.04-.69 1.9-2.04 2.59-4.06l1.64-4.49L412.6 90h-11.57L387.3 50.46h13.64L407 70.4l3.1 14.16 3.2-14.16 5.96-19.94h13.9l-15.2 44.9c-1.66 4.66-3.85 7.97-6.56 9.92-2.64 2.02-5.95 3.02-9.93 3.02Z"/><mask id="a" fill="#fff"><path d="M145.17 49.93h294V93.1h-294V49.93Z"/></mask><path fill="#5F6978" d="M145.17 93.35h2.53v-.5h-2.53v.5Zm7.6 0h5.07v-.5h-5.07v.5Zm10.14 0h5.07v-.5h-5.07v.5Zm10.14 0h5.06v-.5h-5.06v.5Zm10.13 0h5.07v-.5h-5.07v.5Zm10.14 0h5.07v-.5h-5.07v.5Zm10.14 0h5.07v-.5h-5.07v.5Zm10.14 0h5.07v-.5h-5.07v.5Zm10.14 0h5.06v-.5h-5.06v.5Zm10.13 0h5.07v-.5h-5.07v.5Zm10.14 0h5.07v-.5h-5.07v.5Zm10.14 0h5.07v-.5h-5.07v.5Zm10.14 0h5.07v-.5h-5.07v.5Zm10.13 0h5.07v-.5h-5.06v.5Zm10.14 0h5.07v-.5h-5.07v.5Zm10.14 0h5.07v-.5h-5.07v.5Zm10.14 0h5.07v-.5h-5.07v.5Zm10.14 0h5.07v-.5h-5.07v.5Zm10.13 0h5.07v-.5h-5.06v.5Zm10.14 0h5.07v-.5h-5.07v.5Zm10.14 0h5.07v-.5h-5.07v.5Zm10.14 0h5.07v-.5h-5.07v.5Zm10.14 0h5.07v-.5h-5.07v.5Zm10.13 0h5.07v-.5h-5.06v.5Zm10.14 0h5.07v-.5h-5.07v.5Zm10.14 0h5.07v-.5h-5.07v.5Zm10.14 0h5.07v-.5h-5.07v.5Zm10.14 0h5.06v-.5h-5.06v.5Zm10.13 0h5.07v-.5h-5.07v.5Zm10.14 0h2.54v-.5h-2.54v.5Zm2.54-43.67h-2.54v.5h2.54v-.5Zm-7.6 0h-5.08v.5h5.07v-.5Zm-10.14 0h-5.07v.5h5.06v-.5Zm-10.14 0h-5.07v.5h5.07v-.5Zm-10.14 0h-5.07v.5h5.07v-.5Zm-10.14 0h-5.07v.5h5.07v-.5Zm-10.14 0h-5.06v.5h5.06v-.5Zm-10.13 0h-5.07v.5h5.07v-.5Zm-10.14 0h-5.07v.5h5.07v-.5Zm-10.14 0h-5.07v.5h5.07v-.5Zm-10.14 0h-5.07v.5h5.07v-.5Zm-10.14 0h-5.06v.5h5.06v-.5Zm-10.13 0h-5.07v.5h5.07v-.5Zm-10.14 0h-5.07v.5h5.07v-.5Zm-10.14 0h-5.07v.5h5.07v-.5Zm-10.14 0h-5.07v.5h5.07v-.5Zm-10.14 0h-5.06v.5h5.06v-.5Zm-10.13 0h-5.07v.5h5.07v-.5Zm-10.14 0h-5.07v.5h5.07v-.5Zm-10.14 0h-5.07v.5h5.07v-.5Zm-10.14 0h-5.07v.5h5.07v-.5Zm-10.13 0h-5.07v.5h5.06v-.5Zm-10.14 0h-5.07v.5h5.07v-.5Zm-10.14 0h-5.07v.5h5.07v-.5Zm-10.14 0h-5.07v.5h5.07v-.5Zm-10.14 0h-5.07v.5h5.07v-.5Zm-10.13 0h-5.07v.5h5.06v-.5Zm-10.14 0h-5.07v.5h5.07v-.5Zm-10.14 0h-5.07v.5h5.07v-.5Zm-10.14 0h-2.53v.5h2.53v-.5Zm-2.53 43.92h2.53v-1h-2.53v1Zm7.6 0h5.07v-1h-5.07v1Zm10.14 0h5.07v-1h-5.07v1Zm10.14 0h5.06v-1h-5.06v1Zm10.13 0h5.07v-1h-5.07v1Zm10.14 0h5.07v-1h-5.07v1Zm10.14 0h5.07v-1h-5.07v1Zm10.14 0h5.07v-1h-5.07v1Zm10.14 0h5.06v-1h-5.06v1Zm10.13 0h5.07v-1h-5.07v1Zm10.14 0h5.07v-1h-5.07v1Zm10.14 0h5.07v-1h-5.07v1Zm10.14 0h5.07v-1h-5.07v1Zm10.13 0h5.07v-1h-5.06v1Zm10.14 0h5.07v-1h-5.07v1Zm10.14 0h5.07v-1h-5.07v1Zm10.14 0h5.07v-1h-5.07v1Zm10.14 0h5.07v-1h-5.07v1Zm10.13 0h5.07v-1h-5.06v1Zm10.14 0h5.07v-1h-5.07v1Zm10.14 0h5.07v-1h-5.07v1Zm10.14 0h5.07v-1h-5.07v1Zm10.14 0h5.07v-1h-5.07v1Zm10.13 0h5.07v-1h-5.06v1Zm10.14 0h5.07v-1h-5.07v1Zm10.14 0h5.07v-1h-5.07v1Zm10.14 0h5.07v-1h-5.07v1Zm10.14 0h5.06v-1h-5.06v1Zm10.13 0h5.07v-1h-5.07v1Zm10.14 0h2.54v-1h-2.54v1Zm2.54-44.17h-2.54v1h2.54v-1Zm-7.6 0h-5.08v1h5.07v-1Zm-10.14 0h-5.07v1h5.06v-1Zm-10.14 0h-5.07v1h5.07v-1Zm-10.14 0h-5.07v1h5.07v-1Zm-10.14 0h-5.07v1h5.07v-1Zm-10.14 0h-5.06v1h5.06v-1Zm-10.13 0h-5.07v1h5.07v-1Zm-10.14 0h-5.07v1h5.07v-1Zm-10.14 0h-5.07v1h5.07v-1Zm-10.14 0h-5.07v1h5.07v-1Zm-10.14 0h-5.06v1h5.06v-1Zm-10.13 0h-5.07v1h5.07v-1Zm-10.14 0h-5.07v1h5.07v-1Zm-10.14 0h-5.07v1h5.07v-1Zm-10.14 0h-5.07v1h5.07v-1Zm-10.14 0h-5.06v1h5.06v-1Zm-10.13 0h-5.07v1h5.07v-1Zm-10.14 0h-5.07v1h5.07v-1Zm-10.14 0h-5.07v1h5.07v-1Zm-10.14 0h-5.07v1h5.07v-1Zm-10.13 0h-5.07v1h5.06v-1Zm-10.14 0h-5.07v1h5.07v-1Zm-10.14 0h-5.07v1h5.07v-1Zm-10.14 0h-5.07v1h5.07v-1Zm-10.14 0h-5.07v1h5.07v-1Zm-10.13 0h-5.07v1h5.06v-1Zm-10.14 0h-5.07v1h5.07v-1Zm-10.14 0h-5.07v1h5.07v-1Zm-10.14 0h-2.53v1h2.53v-1Z" mask="url(#a)"/><mask id="b" fill="#fff"><path d="M139.33 34.76H445v74.67H139.33V34.76Z"/></mask><path fill="#5F6978" d="M139.33 109.68h2.47v-.5h-2.47v.5Zm7.4 0h4.93v-.5h-4.93v.5Zm9.86 0h4.93v-.5h-4.93v.5Zm9.86 0h4.93v-.5h-4.93v.5Zm9.86 0h4.93v-.5h-4.93v.5Zm9.86 0h4.93v-.5h-4.93v.5Zm9.86 0h4.93v-.5h-4.93v.5Zm9.86 0h4.93v-.5h-4.93v.5Zm9.86 0h4.93v-.5h-4.93v.5Zm9.86 0h4.93v-.5h-4.93v.5Zm9.86 0h4.93v-.5h-4.93v.5Zm9.86 0h4.93v-.5h-4.93v.5Zm9.86 0h4.93v-.5h-4.93v.5Zm9.86 0h4.93v-.5h-4.93v.5Zm9.86 0h4.93v-.5h-4.93v.5Zm9.86 0h4.93v-.5h-4.93v.5Zm9.86 0h4.93v-.5h-4.93v.5Zm9.86 0h4.93v-.5h-4.93v.5Zm9.86 0h4.93v-.5h-4.93v.5Zm9.86 0h4.93v-.5h-4.93v.5Zm9.86 0H339v-.5h-4.93v.5Zm9.86 0h4.93v-.5h-4.93v.5Zm9.86 0h4.93v-.5h-4.93v.5Zm9.86 0h4.93v-.5h-4.93v.5Zm9.86 0h4.93v-.5h-4.93v.5Zm9.86 0h4.93v-.5h-4.93v.5Zm9.86 0h4.93v-.5h-4.93v.5Zm9.86 0h4.93v-.5h-4.93v.5Zm9.87 0h4.93v-.5h-4.94v.5Zm9.86 0h4.93v-.5h-4.94v.5Zm9.86 0h4.93v-.5h-4.94v.5Zm9.86 0H445v-.5h-2.46v.5ZM445 34.5h-2.46v.5H445v-.5Zm-7.4 0h-4.93v.5h4.94v-.5Zm-9.86 0h-4.93v.5h4.94v-.5Zm-9.86 0h-4.93v.5h4.93v-.5Zm-9.86 0h-4.93v.5h4.93v-.5Zm-9.86 0h-4.93v.5h4.93v-.5Zm-9.86 0h-4.93v.5h4.93v-.5Zm-9.86 0h-4.93v.5h4.93v-.5Zm-9.86 0h-4.93v.5h4.93v-.5Zm-9.86 0h-4.93v.5h4.93v-.5Zm-9.86 0h-4.93v.5h4.93v-.5Zm-9.86 0h-4.93v.5H339v-.5Zm-9.86 0h-4.93v.5h4.93v-.5Zm-9.86 0h-4.93v.5h4.93v-.5Zm-9.86 0h-4.93v.5h4.93v-.5Zm-9.86 0h-4.93v.5h4.93v-.5Zm-9.86 0h-4.93v.5h4.93v-.5Zm-9.86 0h-4.93v.5h4.93v-.5Zm-9.86 0h-4.93v.5h4.93v-.5Zm-9.86 0h-4.93v.5h4.93v-.5Zm-9.86 0h-4.93v.5h4.93v-.5Zm-9.86 0h-4.93v.5h4.93v-.5Zm-9.86 0h-4.93v.5h4.93v-.5Zm-9.86 0h-4.93v.5h4.93v-.5Zm-9.86 0h-4.93v.5h4.93v-.5Zm-9.86 0h-4.93v.5h4.93v-.5Zm-9.86 0h-4.93v.5h4.93v-.5Zm-9.86 0h-4.93v.5h4.93v-.5Zm-9.86 0h-4.93v.5h4.93v-.5Zm-9.86 0h-4.93v.5h4.93v-.5Zm-9.86 0h-4.93v.5h4.93v-.5Zm-9.86 0h-2.47v.5h2.47v-.5Zm-2.47 75.42h2.47v-1h-2.47v1Zm7.4 0h4.93v-1h-4.93v1Zm9.86 0h4.93v-1h-4.93v1Zm9.86 0h4.93v-1h-4.93v1Zm9.86 0h4.93v-1h-4.93v1Zm9.86 0h4.93v-1h-4.93v1Zm9.86 0h4.93v-1h-4.93v1Zm9.86 0h4.93v-1h-4.93v1Zm9.86 0h4.93v-1h-4.93v1Zm9.86 0h4.93v-1h-4.93v1Zm9.86 0h4.93v-1h-4.93v1Zm9.86 0h4.93v-1h-4.93v1Zm9.86 0h4.93v-1h-4.93v1Zm9.86 0h4.93v-1h-4.93v1Zm9.86 0h4.93v-1h-4.93v1Zm9.86 0h4.93v-1h-4.93v1Zm9.86 0h4.93v-1h-4.93v1Zm9.86 0h4.93v-1h-4.93v1Zm9.86 0h4.93v-1h-4.93v1Zm9.86 0h4.93v-1h-4.93v1Zm9.86 0H339v-1h-4.93v1Zm9.86 0h4.93v-1h-4.93v1Zm9.86 0h4.93v-1h-4.93v1Zm9.86 0h4.93v-1h-4.93v1Zm9.86 0h4.93v-1h-4.93v1Zm9.86 0h4.93v-1h-4.93v1Zm9.86 0h4.93v-1h-4.93v1Zm9.86 0h4.93v-1h-4.93v1Zm9.87 0h4.93v-1h-4.94v1Zm9.86 0h4.93v-1h-4.94v1Zm9.86 0h4.93v-1h-4.94v1Zm9.86 0H445v-1h-2.46v1ZM445 34.26h-2.46v1H445v-1Zm-7.4 0h-4.93v1h4.94v-1Zm-9.86 0h-4.93v1h4.94v-1Zm-9.86 0h-4.93v1h4.93v-1Zm-9.86 0h-4.93v1h4.93v-1Zm-9.86 0h-4.93v1h4.93v-1Zm-9.86 0h-4.93v1h4.93v-1Zm-9.86 0h-4.93v1h4.93v-1Zm-9.86 0h-4.93v1h4.93v-1Zm-9.86 0h-4.93v1h4.93v-1Zm-9.86 0h-4.93v1h4.93v-1Zm-9.86 0h-4.93v1H339v-1Zm-9.86 0h-4.93v1h4.93v-1Zm-9.86 0h-4.93v1h4.93v-1Zm-9.86 0h-4.93v1h4.93v-1Zm-9.86 0h-4.93v1h4.93v-1Zm-9.86 0h-4.93v1h4.93v-1Zm-9.86 0h-4.93v1h4.93v-1Zm-9.86 0h-4.93v1h4.93v-1Zm-9.86 0h-4.93v1h4.93v-1Zm-9.86 0h-4.93v1h4.93v-1Zm-9.86 0h-4.93v1h4.93v-1Zm-9.86 0h-4.93v1h4.93v-1Zm-9.86 0h-4.93v1h4.93v-1Zm-9.86 0h-4.93v1h4.93v-1Zm-9.86 0h-4.93v1h4.93v-1Zm-9.86 0h-4.93v1h4.93v-1Zm-9.86 0h-4.93v1h4.93v-1Zm-9.86 0h-4.93v1h4.93v-1Zm-9.86 0h-4.93v1h4.93v-1Zm-9.86 0h-4.93v1h4.93v-1Zm-9.86 0h-2.47v1h2.47v-1Z" mask="url(#b)"/><mask id="c" fill="#fff"><path d="M149.83 114.1V20.76H434.5v93.34H149.83Z"/></mask><path fill="#5F6978" d="M434.75 114.1v-2.6h-.5v2.6h.5Zm0-7.78v-5.19h-.5v5.19h.5Zm0-10.37v-5.19h-.5v5.19h.5Zm0-10.37v-5.19h-.5v5.19h.5Zm0-10.37v-5.19h-.5v5.19h.5Zm0-10.37v-5.19h-.5v5.19h.5Zm0-10.37v-5.19h-.5v5.19h.5Zm0-10.37v-5.2h-.5v5.19h.5Zm0-10.37v-5.19h-.5v5.19h.5Zm0-10.38v-2.59h-.5v2.6h.5Zm-285.17-2.59v2.6h.5v-2.6h-.5Zm0 7.78v5.19h.5v-5.19h-.5Zm0 10.37v5.19h.5v-5.2h-.5Zm0 10.37v5.19h.5v-5.19h-.5Zm0 10.37v5.19h.5v-5.19h-.5Zm0 10.37v5.19h.5v-5.19h-.5Zm0 10.37v5.19h.5v-5.19h-.5Zm0 10.37v5.19h.5v-5.19h-.5Zm0 10.37v5.19h.5v-5.19h-.5Zm0 10.37v2.6h.5v-2.6h-.5ZM435 114.1v-2.6h-1v2.6h1Zm0-7.78v-5.19h-1v5.19h1Zm0-10.37v-5.19h-1v5.19h1Zm0-10.37v-5.19h-1v5.19h1Zm0-10.37v-5.19h-1v5.19h1Zm0-10.37v-5.19h-1v5.19h1Zm0-10.37v-5.19h-1v5.19h1Zm0-10.37v-5.2h-1v5.19h1Zm0-10.37v-5.19h-1v5.19h1Zm0-10.38v-2.59h-1v2.6h1Zm-285.67-2.59v2.6h1v-2.6h-1Zm0 7.78v5.19h1v-5.19h-1Zm0 10.37v5.19h1v-5.2h-1Zm0 10.37v5.19h1v-5.19h-1Zm0 10.37v5.19h1v-5.19h-1Zm0 10.37v5.19h1v-5.19h-1Zm0 10.37v5.19h1v-5.19h-1Zm0 10.37v5.19h1v-5.19h-1Zm0 10.37v5.19h1v-5.19h-1Zm0 10.37v2.6h1v-2.6h-1Z" mask="url(#c)"/><path fill="#FCFCFC" d="M83.37 30.83a18.88 18.88 0 1 0-11.58 27.72l13.23 22.92a18.88 18.88 0 1 0 8.66-5L80.45 53.54a18.89 18.89 0 0 0 2.92-22.7ZM35.5 113.71a18.88 18.88 0 1 0 0-37.76 18.88 18.88 0 0 0 0 37.76Z"/><mask id="d" width="83.39" height="132.44" x="41.16" y="1.45" fill="#000" maskUnits="userSpaceOnUse"><path fill="#fff" d="M41.16 1.45h83.39v132.44H41.16z"/><path d="m42.03 6.95 8.65-5 72.7 125.94-8.64 5L42.03 6.95Z"/></mask><path fill="#5F6978" d="m41.8 7.08 1.22 2.1.43-.26-1.2-2.1-.44.26Zm3.64 6.3 2.43 4.19.43-.25-2.42-4.2-.44.25Zm4.85 8.39 2.43 4.2.43-.25-2.43-4.2-.43.25Zm4.85 8.4 2.42 4.2.44-.26-2.43-4.2-.43.25Zm4.85 8.39 2.42 4.2.43-.25-2.42-4.2-.43.25Zm4.84 8.4 2.43 4.2.43-.26-2.42-4.2-.44.26Zm4.85 8.4 2.42 4.19.44-.25-2.43-4.2-.43.25Zm4.85 8.39 2.42 4.2.43-.25-2.42-4.2-.43.25Zm4.85 8.4 2.42 4.2.43-.26-2.42-4.2-.43.25Zm4.84 8.39 2.43 4.2.43-.25-2.42-4.2-.44.25Zm4.85 8.4 2.42 4.2.44-.26-2.43-4.2-.43.26Zm4.85 8.4 2.42 4.19.43-.25-2.42-4.2-.43.25Zm4.84 8.39 2.43 4.2.43-.26-2.42-4.2-.44.26Zm4.85 8.4 2.42 4.2.44-.26-2.42-4.2-.44.25Zm4.85 8.39 2.42 4.2.44-.25-2.43-4.2-.43.25Zm4.85 8.4 1.2 2.1.44-.26-1.21-2.1-.43.25Zm10.3-3.15-1.22-2.1-.43.25 1.2 2.1.44-.25Zm-3.64-6.3-2.43-4.2-.43.25 2.42 4.2.44-.25Zm-4.85-8.4-2.42-4.2-.44.26 2.43 4.2.43-.25Zm-4.85-8.39-2.42-4.2-.43.25 2.42 4.2.43-.25Zm-4.84-8.4-2.43-4.2-.43.26 2.42 4.2.44-.26Zm-4.85-8.4-2.43-4.19-.43.25 2.42 4.2.44-.25Zm-4.85-8.39-2.42-4.2-.44.25 2.43 4.2.43-.25Zm-4.85-8.4-2.42-4.2-.43.26 2.42 4.2.43-.25Zm-4.84-8.39-2.43-4.2-.43.25 2.42 4.2.44-.25Zm-4.85-8.4-2.43-4.2-.43.26 2.43 4.2.43-.26Zm-4.85-8.4-2.42-4.19-.44.25 2.43 4.2.43-.25Zm-4.85-8.39-2.42-4.2-.43.25 2.42 4.2.43-.25Zm-4.84-8.4-2.43-4.2-.43.26 2.42 4.2.44-.25Zm-4.85-8.39-2.42-4.2-.44.25 2.43 4.2.43-.25Zm-4.85-8.4-2.42-4.2-.43.26 2.42 4.2.43-.25Zm-4.85-8.4-1.2-2.09-.44.25 1.21 2.1.43-.25ZM41.6 7.2l1.2 2.1.87-.5-1.21-2.1-.87.5Zm3.63 6.3 2.42 4.2.87-.5-2.43-4.2-.86.5Zm4.85 8.4 2.42 4.2.86-.5-2.42-4.2-.86.5Zm4.84 8.39 2.43 4.2.86-.5-2.42-4.2-.87.5Zm4.85 8.4 2.42 4.2.87-.5-2.42-4.2-.87.5Zm4.85 8.4 2.42 4.19.87-.5-2.43-4.2-.86.5Zm4.84 8.39 2.43 4.2.86-.5-2.42-4.2-.87.5Zm4.85 8.4 2.43 4.2.86-.5-2.42-4.2-.87.5Zm4.85 8.39 2.42 4.2.87-.5-2.43-4.2-.86.5Zm4.85 8.4 2.42 4.2.87-.5-2.43-4.2-.86.5Zm4.84 8.4 2.43 4.19.86-.5-2.42-4.2-.87.5Zm4.85 8.39 2.42 4.2.87-.5-2.42-4.2-.87.5Zm4.85 8.4 2.42 4.19.87-.5-2.43-4.2-.86.5Zm4.84 8.39 2.43 4.2.87-.5-2.43-4.2-.87.5Zm4.85 8.4 2.43 4.2.86-.5-2.42-4.2-.87.5Zm4.85 8.39 1.21 2.1.87-.5-1.21-2.1-.87.5Zm10.73-3.4-1.21-2.1-.87.5 1.21 2.1.87-.5Zm-3.64-6.3-2.42-4.2-.87.5 2.43 4.2.86-.5Zm-4.84-8.39-2.43-4.2-.86.5 2.42 4.2.87-.5Zm-4.85-8.4-2.42-4.2-.87.5 2.42 4.2.87-.5Zm-4.85-8.4-2.42-4.19-.87.5 2.43 4.2.86-.5Zm-4.85-8.39-2.42-4.2-.87.5 2.43 4.2.86-.5Zm-4.84-8.4-2.43-4.19-.86.5 2.42 4.2.87-.5Zm-4.85-8.39-2.42-4.2-.87.5 2.42 4.2.87-.5Zm-4.85-8.4-2.42-4.2-.87.5 2.43 4.2.86-.5Zm-4.84-8.39-2.43-4.2-.86.5 2.42 4.2.87-.5Zm-4.85-8.4-2.43-4.2-.86.5 2.42 4.2.87-.5Zm-4.85-8.4-2.42-4.19-.87.5 2.42 4.2.87-.5ZM66.86 29l-2.42-4.2-.87.5L66 29.5l.86-.5Zm-4.84-8.4-2.43-4.2-.86.5 2.42 4.2.87-.5Zm-4.85-8.39L54.74 8l-.86.5 2.42 4.2.87-.5Zm-4.85-8.4-1.21-2.1-.87.5 1.22 2.1.86-.5Z" mask="url(#d)"/><path stroke="#5F6978" stroke-dasharray="5 5" stroke-width=".5" d="M124.87 75.55H72.34m52.53 38.19H72.34m45.13 7.15V68.35m-38.2 52.54V68.35m-43.9 34.47V86.4m8.46 8.46H27.41m34.48-19.21H9.35m52.54 38.19H9.35m45.13 7.14V68.45m-38.2 52.54V68.45M93.42 21.1H40.88m52.54 38.2H40.88m45.13 7.13V13.89m-38.2 52.54V13.89"/></svg>