<svg width="208" height="75" viewBox="0 0 208 75" fill="none" xmlns="http://www.w3.org/2000/svg">
<path d="M44.2074 22.4739C42.0738 18.7784 37.3483 17.5122 33.6527 19.6458C29.9571 21.7795 28.6909 26.505 30.8246 30.2005C32.6037 33.2821 36.1851 34.6745 39.4687 33.815L44.8856 43.1974C43.5079 44.5928 42.6575 46.51 42.6575 48.6258C42.6575 52.8931 46.1168 56.3524 50.384 56.3524C54.6513 56.3524 58.1106 52.8931 58.1106 48.6258C58.1106 44.3585 54.6513 40.8992 50.384 40.8992C49.7089 40.8992 49.0539 40.9858 48.4297 41.1485L43.0142 31.7686C45.4015 29.3547 45.9869 25.5561 44.2074 22.4739Z" fill="#FCFCFC"/>
<path d="M24.616 56.3902C28.8832 56.3902 32.3425 52.9309 32.3425 48.6637C32.3425 44.3964 28.8832 40.9371 24.616 40.9371C20.3487 40.9371 16.8894 44.3964 16.8894 48.6637C16.8894 52.9309 20.3487 56.3902 24.616 56.3902Z" fill="#FCFCFC"/>
<path d="M85.616 53.142C84.1213 53.142 82.6773 52.914 81.284 52.458C79.916 52.0273 78.7 51.356 77.636 50.444C76.572 49.5573 75.7233 48.4173 75.09 47.024C74.482 45.6053 74.178 43.9207 74.178 41.97C74.178 39.4113 74.6087 37.1187 75.47 35.092C76.3313 33.0653 77.5347 31.33 79.08 29.886C80.6253 28.442 82.4493 27.34 84.552 26.58C86.68 25.82 88.998 25.44 91.506 25.44C93.9887 25.44 96.1167 25.8707 97.89 26.732C99.6887 27.5933 101.057 28.86 101.994 30.532C102.957 32.1787 103.438 34.18 103.438 36.536C103.438 38.132 103.235 39.576 102.83 40.868C102.45 42.16 101.893 43.2493 101.158 44.136C100.449 45.0227 99.5873 45.7067 98.574 46.188C97.586 46.6693 96.4967 46.91 95.306 46.91C94.09 46.91 93.1147 46.6947 92.38 46.264C91.6453 45.808 91.126 45.2253 90.822 44.516C90.5433 43.7813 90.442 43.0213 90.518 42.236C90.29 42.996 89.9607 43.7053 89.53 44.364C89.1247 45.0227 88.58 45.5673 87.896 45.998C87.2373 46.4033 86.4267 46.606 85.464 46.606C84.1467 46.606 83.07 46.1627 82.234 45.276C81.4233 44.364 81.018 43.0213 81.018 41.248C81.018 39.5 81.3093 37.942 81.892 36.574C82.4747 35.206 83.2727 34.142 84.286 33.382C85.2993 32.622 86.4267 32.242 87.668 32.242C88.6053 32.242 89.34 32.4447 89.872 32.85C90.4293 33.2553 90.822 33.8127 91.05 34.522C91.278 35.206 91.3793 35.966 91.354 36.802L92.038 32.546H96.636L95.192 41.248C95.0907 41.932 95.1033 42.4387 95.23 42.768C95.382 43.072 95.6733 43.224 96.104 43.224C96.712 43.224 97.2567 42.9327 97.738 42.35C98.2193 41.742 98.5867 40.9313 98.84 39.918C99.0933 38.9047 99.22 37.8027 99.22 36.612C99.22 34.2813 98.536 32.4827 97.168 31.216C95.8253 29.9493 93.7353 29.316 90.898 29.316C88.314 29.316 86.11 29.8227 84.286 30.836C82.462 31.824 81.0687 33.23 80.106 35.054C79.1433 36.878 78.662 38.9933 78.662 41.4C78.662 43.1733 78.9787 44.6427 79.612 45.808C80.2707 46.948 81.17 47.7967 82.31 48.354C83.45 48.886 84.7673 49.152 86.262 49.152C87.478 49.152 88.5927 49.038 89.606 48.81C90.6193 48.582 91.5313 48.2907 92.342 47.936L91.202 52.382C90.442 52.61 89.5933 52.7873 88.656 52.914C87.7187 53.066 86.7053 53.142 85.616 53.142ZM88.048 43.376C88.6053 43.376 89.0613 43.262 89.416 43.034C89.7707 42.806 90.0493 42.502 90.252 42.122C90.48 41.7167 90.632 41.2733 90.708 40.792L91.088 38.512C91.2653 37.3973 91.1387 36.612 90.708 36.156C90.3027 35.7 89.7327 35.472 88.998 35.472C88.0353 35.472 87.25 35.966 86.642 36.954C86.0593 37.9167 85.768 39.158 85.768 40.678C85.768 41.59 85.9707 42.274 86.376 42.73C86.8067 43.1607 87.364 43.376 88.048 43.376ZM123.87 49H118.436V37.904C118.436 36.764 118.234 35.8647 117.828 35.206C117.448 34.5473 116.625 34.218 115.358 34.218C114.497 34.218 113.813 34.3827 113.306 34.712C112.825 35.0413 112.47 35.5353 112.242 36.194C112.04 36.8527 111.938 37.6887 111.938 38.702L111.786 36.764C111.913 35.624 112.204 34.5347 112.66 33.496C113.116 32.4573 113.788 31.6213 114.674 30.988C115.586 30.3293 116.752 30 118.17 30C119.944 30 121.337 30.5193 122.35 31.558C123.364 32.5967 123.87 34.0787 123.87 36.004V49ZM111.938 49H106.504V23.54H111.938V49ZM144.67 49H141.478C140.819 49 140.198 48.886 139.616 48.658C139.033 48.43 138.552 48.0627 138.172 47.556C137.817 47.024 137.64 46.3147 137.64 45.428V39.006L137.792 38.246C137.792 37.106 137.602 36.2193 137.222 35.586C136.842 34.9527 136.018 34.636 134.752 34.636C133.561 34.636 132.459 34.94 131.446 35.548C130.432 36.1307 129.596 36.8907 128.938 37.828L126.202 33.876C126.81 33.192 127.557 32.5587 128.444 31.976C129.33 31.3933 130.331 30.9247 131.446 30.57C132.586 30.19 133.814 30 135.132 30C137.488 30 139.312 30.6207 140.604 31.862C141.921 33.078 142.58 34.8513 142.58 37.182V43.566C142.58 43.9713 142.656 44.2627 142.808 44.44C142.985 44.592 143.238 44.668 143.568 44.668H144.67V49ZM131.598 49.418C130.154 49.418 128.976 49.038 128.064 48.278C127.152 47.4927 126.696 46.3527 126.696 44.858C126.696 43.4393 127.139 42.2993 128.026 41.438C128.938 40.5513 130.268 39.804 132.016 39.196L138.21 36.878L138.704 40.108L133.688 42.198C132.953 42.502 132.434 42.806 132.13 43.11C131.851 43.3887 131.712 43.7053 131.712 44.06C131.712 44.4907 131.864 44.8327 132.168 45.086C132.497 45.314 132.978 45.428 133.612 45.428C134.245 45.428 134.815 45.352 135.322 45.2C135.828 45.0227 136.246 44.782 136.576 44.478C136.93 44.174 137.196 43.8067 137.374 43.376C137.551 42.9453 137.64 42.4387 137.64 41.856L137.754 43.68C137.576 44.516 137.26 45.3773 136.804 46.264C136.373 47.1253 135.727 47.8727 134.866 48.506C134.03 49.114 132.94 49.418 131.598 49.418ZM162.557 49H145.533V45.01L151.993 37.942L155.983 34.522L150.473 34.788H146.065V30.38H162.177V34.37L155.603 41.096L151.385 44.82L157.123 44.592H162.557V49ZM172.984 49.38C171.008 49.38 169.298 48.9747 167.854 48.164C166.435 47.3533 165.346 46.2133 164.586 44.744C163.826 43.2747 163.446 41.59 163.446 39.69C163.446 37.7647 163.826 36.08 164.586 34.636C165.346 33.1667 166.41 32.0267 167.778 31.216C169.146 30.4053 170.729 30 172.528 30C174.504 30 176.151 30.3927 177.468 31.178C178.785 31.9633 179.773 33.0273 180.432 34.37C181.091 35.7127 181.42 37.1947 181.42 38.816C181.42 39.2213 181.395 39.652 181.344 40.108C181.319 40.5387 181.281 40.868 181.23 41.096H167.322V37.98H177.43L176.556 38.702C176.556 37.2327 176.227 36.118 175.568 35.358C174.909 34.5727 173.909 34.18 172.566 34.18C171.299 34.18 170.299 34.5727 169.564 35.358C168.855 36.118 168.5 37.2707 168.5 38.816V40.222C168.5 41.3113 168.69 42.2107 169.07 42.92C169.45 43.604 169.982 44.1233 170.666 44.478C171.375 44.8073 172.173 44.972 173.06 44.972C173.947 44.972 174.694 44.858 175.302 44.63C175.91 44.402 176.417 44.0853 176.822 43.68C177.227 43.2493 177.544 42.768 177.772 42.236L181.078 45.542C180.394 46.53 179.393 47.4167 178.076 48.202C176.784 48.9873 175.087 49.38 172.984 49.38ZM190.002 49H184.568V23.54H190.002V49Z" fill="#FAFAFA"/>
</svg>
