<svg xmlns="http://www.w3.org/2000/svg" fill="none" viewBox="0 0 520 126"><path fill="#FAFAFA" d="M47.65 12.98h2.53v-.5h-2.53v.5Zm7.59 0h5.06v-.5h-5.06v.5Zm10.12 0h5.06v-.5h-5.06v.5Zm10.12 0h5.06v-.5h-5.06v.5Zm10.12 0h5.05v-.5H85.6v.5Z"/><path fill="#FAFAFA" fill-rule="evenodd" d="M95.71 12.48v.5h-2.94l-30.12 80.4h2.7v.5h5.07v-.5h5.06v.5h5.06v-.5h.35l6.44-17.88h32.41l6.4 17.88h-.08v.5h5.06v-.5h5.06v.5h5.06v-.5h3.73l-30.12-80.4h-3.96v-.5h-5.06v.5h-5.06v-.5h-5.06Zm12.66 31.22 6.18 17.28h-22l6.22-17.28 4.8-17.04 4.8 17.04Z" clip-rule="evenodd"/><path fill="#FAFAFA" d="M115.95 12.98H121v-.5h-5.06v.5Zm10.11 0h5.06v-.5h-5.06v.5Zm10.12 0h5.06v-.5h-5.06v.5Zm10.12 0h5.06v-.5h-5.06v.5Zm10.12 0h5.06v-.5h-5.06v.5Zm10.11 0h5.06v-.5h-5.06v.5Zm10.12 0h5.06v-.5h-5.06v.5Zm10.12 0h5.06v-.5h-5.06v.5Zm10.12 0h5.06v-.5h-5.06v.5Zm10.11 0h5.06v-.5h-5.05v.5Zm10.12 0h2.53v-.5h-2.53v.5ZM47.65 32.88h2.53v-.5h-2.53v.5Zm7.59 0h5.06v-.5h-5.06v.5Zm10.12 0h5.06v-.5h-5.06v.5Zm10.12 0h5.06v-.5h-5.06v.5Zm50.58 0h5.06v-.5h-5.06v.5Zm10.12 0h5.06v-.5h-5.06v.5Zm10.12 0h5.06v-.5h-5.06v.5Zm10.12 0h5.06v-.5h-5.06v.5Zm10.11 0h5.06v-.5h-5.06v.5Zm10.12 0h5.06v-.5h-5.06v.5Zm10.12 0h5.06v-.5h-5.06v.5Zm10.12 0h5.06v-.5h-5.06v.5Zm10.11 0h5.06v-.5h-5.05v.5Zm10.12 0h2.53v-.5h-2.53v.5Zm-169.47 61h2.53v-.5h-2.53v.5Zm7.59 0h5.06v-.5h-5.06v.5Zm30.36 0h5.05v-.5H85.6v.5Zm10.11 0h5.06v-.5h-5.06v.5Zm10.12 0h5.06v-.5h-5.06v.5Zm10.12 0H121v-.5h-5.06v.5Zm30.35 0h5.06v-.5h-5.06v.5Z"/><path fill="#FAFAFA" fill-rule="evenodd" d="M156.42 93.56a14.56 14.56 0 0 1-4.24-2.46c-2.88-2.48-4.32-6.08-4.32-10.8 0-4.48 1.4-8.08 4.2-10.8 2.88-2.8 7.08-5.16 12.6-7.08l17.99-6.73a12.9 12.9 0 0 0-1.55-4.67c-1.2-2-3.8-3-7.8-3-3.76 0-7.24.96-10.44 2.88a24.43 24.43 0 0 0-7.92 7.2l-8.64-12.48a35.41 35.41 0 0 1 7.08-6 38.3 38.3 0 0 1 9.48-4.44c3.6-1.2 7.48-1.8 11.64-1.8 7.44 0 13.2 1.96 17.28 5.88 4.16 3.84 6.24 9.44 6.24 16.8v20.16c0 1.28.24 2.2.72 2.76.56.48 1.36.72 2.4.72h3.48v13.68h-2.67v.5h-5.06v-.5h-2.35a16 16 0 0 1-5.88-1.08 10.29 10.29 0 0 1-4.56-3.48c-1.12-1.68-1.68-3.92-1.68-6.72v-4.03a34.22 34.22 0 0 1-2.64 6.67 19.73 19.73 0 0 1-6.12 7.08 13.5 13.5 0 0 1-2.8 1.56h.73v.5h-2.14c-1.81.55-3.84.82-6.1.82-2.19 0-4.17-.27-5.97-.82h-.96v-.32Zm26-22.74V66.7l-12.48 5.2c-2.32.96-3.96 1.92-4.92 2.88a4.13 4.13 0 0 0-1.32 3 4 4 0 0 0 1.44 3.24c1.04.72 2.56 1.08 4.56 1.08 2 0 3.8-.24 5.4-.72 1.6-.56 2.92-1.32 3.96-2.28a9.07 9.07 0 0 0 2.52-3.48c.56-1.36.84-2.96.84-4.8Z" clip-rule="evenodd"/><path fill="#FAFAFA" d="M176.65 93.88h5.06v-.5h-5.06v.5Zm10.12 0h5.06v-.5h-5.06v.5Zm20.23 0h5.06v-.5h-5.05v.5Zm10.12 0h2.53v-.5h-2.53v.5Zm-169.47 19.9h2.53v-.5h-2.53v.5Zm7.59 0h5.06v-.5h-5.06v.5Zm10.12 0h5.06v-.5h-5.06v.5Zm10.12 0h5.06v-.5h-5.06v.5Zm10.12 0h5.05v-.5H85.6v.5Zm10.11 0h5.06v-.5h-5.06v.5Zm10.12 0h5.06v-.5h-5.06v.5Zm10.12 0H121v-.5h-5.06v.5Zm10.11 0h5.06v-.5h-5.06v.5Zm10.12 0h5.06v-.5h-5.06v.5Zm10.12 0h5.06v-.5h-5.06v.5Zm10.12 0h5.06v-.5h-5.06v.5Zm10.11 0h5.06v-.5h-5.06v.5Zm10.12 0h5.06v-.5h-5.06v.5Zm10.12 0h5.06v-.5h-5.06v.5Zm10.12 0h5.06v-.5h-5.06v.5Zm10.11 0h5.06v-.5h-5.05v.5Zm10.12 0h2.53v-.5h-2.53v.5Z"/><path fill="#363D4A" d="M261.65 16.48h1v93.3h-1z"/><path fill="#FAFAFA" d="M300.66 49.03c-4.13 0-7.71-.9-10.73-2.67a18.41 18.41 0 0 1-6.9-7.2 21.36 21.36 0 0 1-2.38-10.08c0-3.75.8-7.12 2.38-10.1a18.41 18.41 0 0 1 6.9-7.19c3.02-1.78 6.6-2.67 10.73-2.67 2.79 0 5.3.43 7.54 1.28a17.3 17.3 0 0 1 5.86 3.48 19.1 19.1 0 0 1 4.18 5.28l-8.7 7.48a11.06 11.06 0 0 0-1.74-3.6 9.08 9.08 0 0 0-2.96-2.72 8.05 8.05 0 0 0-4.3-1.1 8.01 8.01 0 0 0-7.6 4.7 12.55 12.55 0 0 0-.98 5.16c0 1.93.33 3.65.99 5.16a8.4 8.4 0 0 0 2.96 3.48 8.65 8.65 0 0 0 4.64 1.22 8.4 8.4 0 0 0 4.29-1.05 9.7 9.7 0 0 0 2.96-2.78c.8-1.16 1.39-2.36 1.74-3.6l8.7 7.48a19.1 19.1 0 0 1-10.04 8.82 22.03 22.03 0 0 1-7.54 1.22Zm47.32-.47h-5.91a9.5 9.5 0 0 1-3.13-.52 5.26 5.26 0 0 1-2.38-1.68 5.22 5.22 0 0 1-.93-3.25v-8.58l.46-1.45c0-1.78-.19-3.06-.58-3.83-.38-.77-1.4-1.16-3.07-1.16-1.66 0-3.35.4-5.05 1.22-1.7.81-3.15 1.9-4.35 3.25l-4.64-7.66a20.6 20.6 0 0 1 4.06-2.84 20.4 20.4 0 0 1 4.93-1.97 20.6 20.6 0 0 1 5.63-.76c3.67 0 6.57.91 8.7 2.73 2.13 1.82 3.19 4.56 3.19 8.23v8.65c0 .61.1 1.06.29 1.33.23.23.6.35 1.1.35h1.68v7.94Zm-21.28.64a8.54 8.54 0 0 1-5.34-1.68c-1.43-1.12-2.15-2.98-2.15-5.57 0-2.32.7-4.17 2.1-5.57 1.42-1.43 3.72-2.63 6.9-3.6l8.35-2.54.75 5.97-6.38 2.26c-.97.35-1.62.68-1.97.99-.31.3-.46.66-.46 1.04 0 .47.17.83.52 1.1.38.24.94.35 1.68.35a9.4 9.4 0 0 0 2.2-.23 4 4 0 0 0 1.51-.81c.43-.35.74-.8.93-1.34.2-.54.29-1.18.29-1.91l.12 2.73a17.63 17.63 0 0 1-1.4 3.94 9.28 9.28 0 0 1-2.78 3.48c-1.2.93-2.82 1.4-4.87 1.4Zm42.43-.06c-2.24 0-3.96-.5-5.16-1.5-1.16-1-2-2.29-2.5-3.83a29.39 29.39 0 0 1-.98-4.99l.17-3.3c0 1.54.17 2.74.52 3.59.39.81.9 1.37 1.51 1.68.62.31 1.3.47 2.03.47 1.7 0 2.94-.64 3.71-1.92.78-1.27 1.16-2.98 1.16-5.1 0-2.13-.38-3.83-1.16-5.1-.77-1.28-2-1.92-3.7-1.92a4.5 4.5 0 0 0-2.04.46c-.62.31-1.12.9-1.5 1.74-.36.82-.53 2-.53 3.54l-.17-3.3c.19-1.74.58-3.4 1.16-5a8.23 8.23 0 0 1 2.78-3.82c1.28-1 3.04-1.5 5.28-1.5a9.3 9.3 0 0 1 5.5 1.67 10.55 10.55 0 0 1 3.66 5c.9 2.2 1.34 4.94 1.34 8.23 0 3.25-.45 6-1.34 8.23a10.57 10.57 0 0 1-3.82 5 10.33 10.33 0 0 1-5.92 1.67Zm-8.47-.58h-10.44V9.7h10.44v38.86Zm33.08-31.26H383.3V9.7h10.44v7.6Zm0 31.26H383.3V19.91h10.44v28.65Zm32.64 0h-10.44v-16c0-1.74-.23-3.06-.7-3.95-.46-.93-1.48-1.39-3.07-1.39-1 0-1.78.15-2.32.46-.54.31-.93.9-1.16 1.74-.2.82-.29 2-.29 3.54l-.17-3.3c.2-1.74.62-3.4 1.27-5a9.27 9.27 0 0 1 3.02-3.82c1.35-1 3.11-1.5 5.28-1.5 2.67 0 4.75.78 6.26 2.37 1.55 1.59 2.32 3.85 2.32 6.79v20.06Zm-17.98 0h-10.44V19.91h10.44v28.65Zm36.1.58c-3.28 0-6.06-.63-8.34-1.91a12.95 12.95 0 0 1-5.22-5.28 16.55 16.55 0 0 1-1.74-7.71c0-2.9.58-5.47 1.74-7.72 1.2-2.24 2.86-4 4.99-5.27a14.69 14.69 0 0 1 7.6-1.92c3.28 0 5.95.64 8 1.92a11.69 11.69 0 0 1 4.52 4.98c1 2.05 1.5 4.24 1.5 6.56 0 .7-.03 1.49-.1 2.38-.05.89-.1 1.5-.18 1.85h-20.82v-5.4h13.16l-1.39.65c0-1.67-.35-2.94-1.04-3.83-.7-.9-1.9-1.34-3.6-1.34-1.5 0-2.7.43-3.6 1.28-.85.85-1.27 2.13-1.27 3.83v3.19c0 1.31.25 2.38.75 3.19a4.61 4.61 0 0 0 2.15 1.68 10.07 10.07 0 0 0 5.63.23 5.95 5.95 0 0 0 2.02-1.04c.62-.5 1.1-1.16 1.45-1.97l6.33 6.03a15.28 15.28 0 0 1-4.64 3.88c-1.97 1.16-4.6 1.74-7.9 1.74Zm28.23 0c-2.48 0-4.47-.42-5.97-1.27a7.8 7.8 0 0 1-3.2-3.54 12.08 12.08 0 0 1-.98-4.99V16.66l10.44-4.64v25.81c0 .74.17 1.3.52 1.69.39.38.91.58 1.57.58a3.6 3.6 0 0 0 1.97-.64c.7-.43 1.28-1 1.74-1.74l2.84 7.83a12.8 12.8 0 0 1-3.19 2.32c-1.5.85-3.42 1.27-5.74 1.27Zm7.25-21.34h-21.46v-7.89h21.46v7.89Zm-183.15 89.23c-2.86 0-5.52-.68-8-2.03a15.19 15.19 0 0 1-5.91-6.5c-1.51-2.94-2.27-6.75-2.27-11.42 0-3.9.8-7.35 2.38-10.33a17.41 17.41 0 0 1 7.02-7.07c3.05-1.7 6.75-2.56 11.08-2.56a24 24 0 0 1 7.6 1.16 18.2 18.2 0 0 1 6.03 3.31c1.7 1.4 3.01 3.05 3.94 4.99l-8.7 6.9a7.17 7.17 0 0 0-1.62-3.19 7.77 7.77 0 0 0-3.02-2.26 10.2 10.2 0 0 0-4.23-.81c-2.01 0-3.71.4-5.1 1.21a7.77 7.77 0 0 0-3.08 3.43 12.7 12.7 0 0 0-.99 5.22c0 2.2.39 4.06 1.16 5.56a8.05 8.05 0 0 0 3.2 3.43 9.63 9.63 0 0 0 4.75 1.16c1.43 0 2.67-.2 3.71-.58a8.26 8.26 0 0 0 2.79-1.63 9.77 9.77 0 0 0 1.97-2.43h.4l-.11.34c-.16 3.21-.78 5.86-1.86 7.95a10.27 10.27 0 0 1-4.4 4.64c-1.86 1-4.1 1.5-6.74 1.5Zm22.28-.47h-7.08l-2.2-13.63H299.5v-8.12h19.6v21.75Zm14.99 0h-10.44V87.91h10.44v28.65Zm0-14.44-.17-3.3a20 20 0 0 1 .87-3.95c.42-1.35 1-2.59 1.74-3.71a9.05 9.05 0 0 1 2.9-2.78 7.85 7.85 0 0 1 4.11-1.05c2.52 0 4.28.72 5.28 2.15 1.05 1.43 1.57 3.34 1.57 5.74 0 1.74-.23 3.3-.7 4.7a16.1 16.1 0 0 1-1.27 3.19h-9.57c.54-.62 1.04-1.41 1.5-2.38.47-1 .7-1.93.7-2.78 0-.82-.2-1.47-.58-1.98-.35-.5-.95-.75-1.8-.75-.77 0-1.53.25-2.26.75a5.1 5.1 0 0 0-1.68 2.32 9.9 9.9 0 0 0-.64 3.83Zm32.13 15.02c-3.05 0-5.7-.63-7.94-1.91a13.96 13.96 0 0 1-5.17-5.34 16.2 16.2 0 0 1-1.8-7.65c0-2.86.6-5.42 1.8-7.66a13.6 13.6 0 0 1 5.17-5.28 15.43 15.43 0 0 1 7.94-1.97c3.21 0 5.96.66 8.24 1.97a12.86 12.86 0 0 1 5.28 5.28 15.59 15.59 0 0 1 1.85 7.66c0 2.82-.62 5.37-1.85 7.65a13.22 13.22 0 0 1-5.28 5.34 16.63 16.63 0 0 1-8.24 1.91Zm.23-8.35c.9 0 1.67-.2 2.33-.58a4.1 4.1 0 0 0 1.62-2.03c.38-.97.58-2.28.58-3.94 0-1.66-.2-2.96-.58-3.89a3.83 3.83 0 0 0-1.63-2.03 4.18 4.18 0 0 0-2.31-.64c-.9 0-1.69.22-2.38.64a3.93 3.93 0 0 0-1.57 2.03 10.4 10.4 0 0 0-.58 3.89 11 11 0 0 0 .58 3.94c.39.93.9 1.6 1.57 2.03.7.39 1.49.58 2.38.58Zm29.87 8.35c-2.47 0-4.46-.42-5.97-1.27a7.81 7.81 0 0 1-3.2-3.54 12.1 12.1 0 0 1-.98-4.99V84.66l10.44-4.64v25.81c0 .74.18 1.3.52 1.69.4.38.91.58 1.57.58a3.6 3.6 0 0 0 1.97-.64c.7-.43 1.28-1 1.74-1.74l2.84 7.83c-.62.7-1.68 1.47-3.19 2.32-1.5.85-3.42 1.27-5.74 1.27Zm7.25-21.34h-21.46v-7.89h21.46v7.89Zm16.8 21.34c-3.28 0-6.07-.63-8.35-1.91a12.93 12.93 0 0 1-5.22-5.28 16.55 16.55 0 0 1-1.74-7.71c0-2.9.58-5.47 1.74-7.72 1.2-2.24 2.86-4 4.99-5.27a14.69 14.69 0 0 1 7.6-1.92c3.28 0 5.95.64 8 1.92a11.69 11.69 0 0 1 4.53 4.98c1 2.05 1.5 4.24 1.5 6.56 0 .7-.04 1.49-.11 2.38-.04.89-.1 1.5-.18 1.85h-20.82v-5.4h13.17l-1.4.65c0-1.67-.34-2.94-1.04-3.83-.7-.9-1.9-1.34-3.6-1.34-1.5 0-2.7.43-3.59 1.28-.85.85-1.28 2.13-1.28 3.83v3.19c0 1.31.25 2.38.76 3.19a4.61 4.61 0 0 0 2.14 1.68 10.1 10.1 0 0 0 5.63.23 5.06 5.06 0 0 0 3.48-3.02l6.32 6.04a15.3 15.3 0 0 1-4.64 3.88c-1.97 1.16-4.6 1.74-7.89 1.74Zm29.56 0a29.68 29.68 0 0 1-11.54-2.26 18.1 18.1 0 0 1-3.72-2.09l3.89-7.54a28.72 28.72 0 0 0 7.83 3.66c1.4.39 2.67.58 3.83.58.77 0 1.35-.1 1.74-.3.38-.19.58-.47.58-.86 0-.43-.3-.77-.87-1.05a17.6 17.6 0 0 0-3.02-.98l-3.94-1.05a28.22 28.22 0 0 1-4.99-1.85 7.76 7.76 0 0 1-3.07-2.67 7.25 7.25 0 0 1-1.05-4c0-2.98 1.14-5.28 3.42-6.9 2.29-1.63 5.32-2.44 9.11-2.44 3.17 0 5.88.46 8.12 1.4 2.24.92 3.93 1.8 5.05 2.66l-3.54 7.42a20.25 20.25 0 0 0-5.63-2.95c-1.9-.62-3.56-.93-4.99-.93-.73 0-1.27.11-1.62.35-.35.19-.52.46-.52.8 0 .43.29.8.87 1.11.58.3 1.8.73 3.65 1.28l2.96.87c3.1.88 5.41 1.99 6.96 3.3a6.69 6.69 0 0 1 2.38 5.45c0 1.78-.48 3.35-1.45 4.7a9.62 9.62 0 0 1-4.12 3.2c-1.74.73-3.85 1.1-6.32 1.1Zm25.12-.58h-10.44V77.7h10.44v12.6l-.58 9.8 5.92-7.77 3.88-4.4h12.07l-14.68 15.65-1.27.18-5.34 5.97v6.84Zm21.06 0h-11.66l-7.83-14.44 8.35-3.36 11.13 17.8Z"/></svg>