<svg xmlns="http://www.w3.org/2000/svg" fill="none" viewBox="0 0 520 114"><path fill="#FAFAFA" d="M68.06.73h2.53v-.5h-2.53v.5Zm7.59 0h5.06v-.5h-5.06v.5Zm10.11 0h5.06v-.5h-5.06v.5Zm10.12 0h5.06v-.5h-5.06v.5Zm10.12 0h5.06v-.5H106v.5Zm20.23 26.3h5.06v-.5h-5.05v.5Z"/><path fill="#FAFAFA" fill-rule="evenodd" d="M120.6.73h-4.48v-.5h5.06v.45h5.05V.23h5.06v.45l9.61 25.85h.51v.5h-.32l22.13 59.57h-9l-8.4-22.8h-39.6l-8.4 22.8h-8.76l21.88-59.57H106v-.5h5.06v.18L120.6.73Zm-1 26.3h1.58v-.5h-1.4l5.04-13.73c.24-.56.44-1.16.6-1.8.24-.72.4-1.28.48-1.68.08.4.24.92.48 1.56s.44 1.28.6 1.92l16.08 43.44h-34.2l10.73-29.2Z" clip-rule="evenodd"/><path fill="#FAFAFA" d="M136.35.73h5.06v-.5h-5.06v.5Zm10.12 0h5.06v-.5h-5.06v.5Zm10.12 0h5.06v-.5h-5.06v.5Zm10.11 0h5.06v-.5h-5.05v.5Zm10.12 0h5.06v-.5h-5.06v.5Zm10.12 0H192v-.5h-5.06v.5Zm10.12 0h5.06v-.5h-5.06v.5Zm10.12 0h5.06v-.5h-5.06v.5Zm10.12 0h5.05v-.5h-5.06v.5Zm10.11 0h5.06v-.5h-5.06v.5Zm10.12 0h2.53v-.5h-2.53v.5ZM68.06 27.03h2.53v-.5h-2.53v.5Zm7.59 0h5.06v-.5h-5.06v.5Zm10.11 0h5.06v-.5h-5.06v.5Zm10.12 0h5.06v-.5h-5.06v.5Zm50.59 0h5.06v-.5h-5.06v.5Zm10.12 0h5.06v-.5h-5.06v.5Zm10.11 0h5.06v-.5h-5.05v.5Zm10.12 0h5.06v-.5h-5.06v.5Zm10.12 0H192v-.5h-5.06v.5Z"/><path fill="#FAFAFA" fill-rule="evenodd" d="M197.8 27.03h4.32v-.5h-5.06V27a37.4 37.4 0 0 0-1.53-.04c-4.72 0-8.88.8-12.48 2.4-3.6 1.6-6.4 3.84-8.4 6.72s-3 6.28-3 10.2h7.56c0-3.92 1.4-6.96 4.2-9.12 2.8-2.16 6.76-3.24 11.88-3.24 2.88 0 5.48.44 7.8 1.32 2.32.88 4.16 2.44 5.52 4.68 1.36 2.16 2.04 5.16 2.04 9v1.92l-19.2 1.56c-6.8.56-12.12 2.44-15.96 5.64-3.84 3.2-5.76 7.48-5.76 12.84 0 5.04 1.72 9.16 5.16 12.36a17.09 17.09 0 0 0 5.8 3.44h-3.87v.5h5.06v-.11a27 27 0 0 0 7.53.97c2.72 0 5.27-.3 7.65-.93v.07h5.06v-.5h-3.62c1.35-.44 2.64-.98 3.87-1.64a19.05 19.05 0 0 0 8.4-8.64l1.08 10.2h6.96V49.04c0-5.12-1.04-9.28-3.12-12.48a17.8 17.8 0 0 0-8.16-7.2 26.82 26.82 0 0 0-9.72-2.33Zm7.8 48.41c-3.35 3.92-8.11 5.88-14.27 5.88-4 0-7.2-.88-9.6-2.64-2.4-1.84-3.6-4.52-3.6-8.04 0-3.2 1.2-5.92 3.6-8.16 2.4-2.24 6.32-3.6 11.76-4.08l17.16-1.32v3.12c0 6.24-1.68 11.32-5.04 15.24Z" clip-rule="evenodd"/><path fill="#FAFAFA" d="M207.18 27.03h5.06v-.5h-5.06v.5Zm10.12 0h5.05v-.5h-5.06v.5Zm10.11 0h5.06v-.5h-5.06v.5Zm10.12 0h2.53v-.5h-2.53v.5ZM68.06 87.18h2.53v-.5h-2.53v.5Zm7.59 0h5.06v-.5h-5.06v.5Zm10.11 0h5.06v-.5h-5.06v.5Zm10.12 0h5.06v-.5h-5.06v.5Zm10.12 0h5.06v-.5H106v.5Zm10.12 0h5.06v-.5h-5.06v.5Zm10.11 0h5.06v-.5h-5.05v.5Zm10.12 0h5.06v-.5h-5.06v.5Zm10.12 0h5.06v-.5h-5.06v.5Zm10.12 0h5.06v-.5h-5.06v.5Zm10.11 0h5.06v-.5h-5.05v.5Zm40.48 0h5.06v-.5h-5.06v.5Zm10.12 0h5.05v-.5h-5.06v.5Zm10.11 0h5.06v-.5h-5.06v.5Zm10.12 0h2.53v-.5h-2.53v.5Zm-169.47 26.3h2.53v-.5h-2.53v.5Zm7.59 0h5.06v-.5h-5.06v.5Zm10.11 0h5.06v-.5h-5.06v.5Zm10.12 0h5.06v-.5h-5.06v.5Zm10.12 0h5.06v-.5H106v.5Zm10.12 0h5.06v-.5h-5.06v.5Zm10.11 0h5.06v-.5h-5.05v.5Zm10.12 0h5.06v-.5h-5.06v.5Zm10.12 0h5.06v-.5h-5.06v.5Zm10.12 0h5.06v-.5h-5.06v.5Zm10.11 0h5.06v-.5h-5.05v.5Zm10.12 0h5.06v-.5h-5.06v.5Zm10.12 0H192v-.5h-5.06v.5Zm10.12 0h5.06v-.5h-5.06v.5Zm10.12 0h5.06v-.5h-5.06v.5Zm10.12 0h5.05v-.5h-5.06v.5Zm10.11 0h5.06v-.5h-5.06v.5Zm10.12 0h2.53v-.5h-2.53v.5Z"/><path fill="#363D4A" d="M258.06 16.23h1v81.25h-1z"/><path fill="#FAFAFA" d="M277.58 46.91c0-2.32.58-4.33 1.74-6.03a11.5 11.5 0 0 1 4.87-4.06 17.24 17.24 0 0 1 7.31-1.45c2.51 0 4.7.44 6.56 1.33 1.89.9 3.4 2.17 4.52 3.83a12.33 12.33 0 0 1 1.97 5.98h-4.23a7.65 7.65 0 0 0-2.67-5.4c-1.55-1.31-3.62-1.97-6.2-1.97-2.9 0-5.25.7-7.02 2.09a6.77 6.77 0 0 0-2.67 5.62 6.5 6.5 0 0 0 1.62 4.53c1.08 1.16 2.7 2 4.87 2.55l7.14 1.74c3.25.77 5.7 2.09 7.36 3.94 1.67 1.82 2.5 4.14 2.5 6.96 0 2.36-.58 4.43-1.74 6.21a11.3 11.3 0 0 1-4.93 4.12 17.94 17.94 0 0 1-7.48 1.45c-2.67 0-5.05-.45-7.14-1.34a11.49 11.49 0 0 1-4.87-3.82 11.8 11.8 0 0 1-2.03-5.86h4.3a6.7 6.7 0 0 0 2.83 5.28c1.78 1.27 4.08 1.91 6.9 1.91 3.06 0 5.48-.7 7.26-2.09a6.72 6.72 0 0 0 2.72-5.62c0-1.9-.54-3.43-1.62-4.59-1.05-1.2-2.7-2.06-4.93-2.6l-7.02-1.75c-3.25-.77-5.72-2.06-7.43-3.88-1.66-1.86-2.49-4.22-2.49-7.08Zm41.97 31.44c-2.98 0-5.32-.78-7.02-2.32a7.8 7.8 0 0 1-2.5-5.98c0-2.59.93-4.66 2.79-6.2 1.86-1.55 4.43-2.46 7.71-2.73l9.28-.75v-.93c0-1.86-.32-3.3-.98-4.35a5.23 5.23 0 0 0-2.67-2.26 10.56 10.56 0 0 0-3.77-.64c-2.47 0-4.39.52-5.74 1.57a5.25 5.25 0 0 0-2.03 4.4h-3.66a8.5 8.5 0 0 1 1.45-4.93 9.5 9.5 0 0 1 4.06-3.24 14.73 14.73 0 0 1 6.04-1.16c2.2 0 4.13.38 5.8 1.16a8.6 8.6 0 0 1 3.94 3.48c1 1.54 1.5 3.55 1.5 6.03v18.15h-3.36l-.52-4.93a9.2 9.2 0 0 1-4.06 4.18c-1.81.96-3.9 1.45-6.26 1.45Zm.93-3.25c2.97 0 5.27-.95 6.9-2.84 1.62-1.9 2.43-4.35 2.43-7.37v-1.5l-8.29.63c-2.63.23-4.52.9-5.68 1.97a5.2 5.2 0 0 0-1.74 3.95c0 1.7.58 3 1.74 3.88a7.67 7.67 0 0 0 4.64 1.28Zm17.27-25.52h15.2v3.36h-15.2v-3.36Zm9.57 28.07h-3.95V40.71h3.95v36.94Zm8.18-14.03c0-2.9.62-5.46 1.86-7.66a13.78 13.78 0 0 1 5.1-5.22 14.12 14.12 0 0 1 7.3-1.91 13.93 13.93 0 0 1 12.42 7.13 15.38 15.38 0 0 1 1.86 7.66c0 2.82-.62 5.35-1.86 7.6a13.93 13.93 0 0 1-12.41 7.13c-2.7 0-5.14-.64-7.31-1.92a13.78 13.78 0 0 1-5.1-5.22 15.46 15.46 0 0 1-1.86-7.6Zm4.06-.06c0 2.2.43 4.15 1.28 5.86a10.42 10.42 0 0 0 3.6 3.94c1.54.93 3.32 1.4 5.33 1.4 2 0 3.77-.47 5.28-1.4a9.85 9.85 0 0 0 3.6-3.94c.88-1.7 1.33-3.66 1.33-5.86a12 12 0 0 0-1.34-5.74 9.85 9.85 0 0 0-3.6-3.95 9.57 9.57 0 0 0-5.27-1.45c-2.01 0-3.8.49-5.34 1.45-1.5.97-2.7 2.28-3.6 3.95a12.43 12.43 0 0 0-1.27 5.74Zm28.1 6.2h3.83a4.8 4.8 0 0 0 1.74 3.89 7.2 7.2 0 0 0 4.64 1.4c2.16 0 3.84-.43 5.04-1.28a4.2 4.2 0 0 0 1.86-3.6c0-1.16-.33-2.09-.99-2.78-.65-.7-1.81-1.26-3.48-1.69l-4.81-1.21c-2.44-.62-4.25-1.57-5.45-2.85a6.68 6.68 0 0 1-1.8-4.75c0-1.63.42-3.04 1.27-4.24a8.1 8.1 0 0 1 3.54-2.84c1.55-.66 3.33-.98 5.34-.98 1.97 0 3.7.34 5.16 1.04a8 8 0 0 1 3.42 2.96 8 8 0 0 1 1.34 4.46h-3.89a4.82 4.82 0 0 0-1.68-3.82c-1.08-.9-2.57-1.34-4.47-1.34-1.97 0-3.5.4-4.58 1.22a4.15 4.15 0 0 0-1.57 3.48c0 2.17 1.53 3.63 4.59 4.4l4.81 1.23c2.44.61 4.22 1.52 5.34 2.72A6.63 6.63 0 0 1 408.6 70c0 1.66-.45 3.13-1.34 4.4a8.57 8.57 0 0 1-3.77 2.96 14.4 14.4 0 0 1-5.57.99c-3.13 0-5.62-.78-7.48-2.32a7.84 7.84 0 0 1-2.78-6.27Zm31.13 7.84h-4V35.36h4v19.08c.89-1.7 2.16-3.05 3.82-4.06a11.42 11.42 0 0 1 6.1-1.56c3.7 0 6.41 1.06 8.12 3.19 1.7 2.12 2.55 4.95 2.55 8.46v17.17h-4v-16.3c0-2.2-.31-3.94-.93-5.22a5.58 5.58 0 0 0-2.61-2.78 8.34 8.34 0 0 0-3.89-.87 9 9 0 0 0-5.05 1.33 8.45 8.45 0 0 0-3.07 3.6 11.37 11.37 0 0 0-1.04 4.93v15.25Zm28.16.05V49.58h4v28.07h-4Zm1.98-35.78c-.82 0-1.51-.3-2.1-.87a2.85 2.85 0 0 1-.86-2.1c0-.8.29-1.5.87-2.08a2.76 2.76 0 0 1 2.09-.93c.8 0 1.5.31 2.08.93.62.58.93 1.28.93 2.09 0 .81-.3 1.5-.93 2.09-.58.58-1.27.87-2.08.87Z"/></svg>