<svg xmlns="http://www.w3.org/2000/svg" fill="none" viewBox="0 0 190 26"><path fill="#FCFCFC" d="M17.0556 3.9146c-1.2901-2.23452-4.1474-3.00013-6.3819-1.71003-2.23456 1.29011-3.00017 4.14738-1.71006 6.38191C10.0394 10.4498 12.2049 11.2917 14.1903 10.772l3.2754 5.6731c-.8331.8437-1.3473 2.0029-1.3473 3.2823 0 2.5802 2.0917 4.6718 4.6719 4.6718s4.6719-2.0916 4.6719-4.6718c0-2.5803-2.0917-4.6719-4.6719-4.6719-.4082 0-.8043.0523-1.1817.1507l-3.2745-5.6716c1.4435-1.45954 1.7974-3.75636.7215-5.62ZM5.2096 24.4221c2.58021 0 4.67188-2.0916 4.67188-4.6719 0-2.5802-2.09167-4.6718-4.67188-4.6718-2.58021 0-4.67188 2.0916-4.67188 4.6718 0 2.5803 2.09167 4.6719 4.67188 4.6719Zm34.6373-5.2085c-.9113 0-1.7869-.0997-2.627-.299-.84-.2136-1.6089-.5411-2.3065-.9825-.6835-.4413-1.253-1.0109-1.7086-1.7085l2.0289-2.3493c.3275.598.7475 1.0892 1.2601 1.4736.5268.3702 1.0963.6479 1.7086.833.6122.1851 1.2031.2776 1.7726.2776.4129 0 .776-.0427 1.0892-.1281.3275-.0997.5838-.2492.7689-.4485.1851-.1994.2776-.4628.2776-.7903 0-.3701-.1068-.662-.3203-.8756-.1994-.2278-.5126-.4129-.9398-.5553-.4129-.1566-.9397-.299-1.5804-.4271l-1.3882-.299c-.5553-.1139-1.0892-.2634-1.6018-.4485s-.9753-.4343-1.3882-.7475c-.4129-.3275-.7404-.7262-.9824-1.196-.2278-.4841-.3417-1.06789-.3417-1.75132 0-.93971.2349-1.72281.7047-2.34928.4841-.64072 1.132-1.11769 1.9435-1.43093.8116-.32748 1.7015-.49122 2.6697-.49122 1.3384 0 2.5273.24205 3.5666.72614 1.0537.4841 1.8795 1.15329 2.4775 2.00758L42.8582 9.5815c-.4698-.74038-1.0892-1.30991-1.8581-1.70858-.7688-.39866-1.5661-.598-2.392-.598-.3701 0-.6976.05696-.9824.17086-.2847.09967-.5054.24917-.6621.4485-.1566.1851-.2349.41291-.2349.68343 0 .52681.2136.91124.6407 1.15329.4414.24204 1.0323.4485 1.7727.6194l1.6231.3844c.6692.1566 1.2743.3488 1.8154.5766.5553.2278 1.0322.5055 1.4309.833.3987.3274.7048.7261.9184 1.196.2135.4698.3203 1.0251.3203 1.6658 0 .9113-.2349 1.6801-.7048 2.3066-.4698.6265-1.1105 1.1034-1.9221 1.4309-.8116.3133-1.7371.4699-2.7764.4699Zm10.7745 0c-.7689 0-1.4096-.1424-1.9222-.4272-.4983-.2847-.8685-.6763-1.1105-1.1746-.2421-.4983-.3631-1.0679-.3631-1.7086V7.29628l3.0541-1.60178v9.6534c0 .4272.0925.7262.2776.897.1993.1709.4485.2563.7475.2563.3275 0 .6265-.1068.897-.3203.2848-.2279.5055-.4913.6621-.7903l.8756 2.4988c-.2278.2848-.6051.5767-1.1319.8757-.5268.299-1.1889.4485-1.9862.4485Zm2.5628-8.3507h-7.5177V8.535h7.5177v2.3279Zm6.0014 8.3507c-1.0536 0-1.9791-.2278-2.7764-.6835-.7831-.4698-1.3883-1.1176-1.8154-1.9435-.4271-.8258-.6407-1.7655-.6407-2.8191 0-1.0679.2136-2.0076.6407-2.8191.4271-.8259 1.0323-1.46657 1.8154-1.92219.7973-.46986 1.7228-.70478 2.7764-.70478 1.0821 0 2.0218.23492 2.8191.70478.8116.45562 1.431 1.09629 1.8581 1.92219.4414.8115.6621 1.7512.6621 2.8191 0 1.0536-.2207 1.9933-.6621 2.8191-.4271.8259-1.0465 1.4737-1.8581 1.9435-.7973.4557-1.737.6835-2.8191.6835Zm.0427-2.4775c.4414 0 .8258-.0996 1.1533-.299.3275-.1993.5838-.5125.7688-.9397.1851-.4414.2777-1.018.2777-1.7299s-.0926-1.2814-.2777-1.7086c-.185-.4414-.4413-.7617-.7688-.961-.3275-.1994-.7119-.299-1.1533-.299-.4271 0-.8044.0996-1.1319.299-.3275.1993-.5838.5196-.7689.961-.1851.4272-.2776.9967-.2776 1.7086 0 .7119.0925 1.2885.2776 1.7299.1851.4272.4414.7404.7689.9397.3275.1994.7048.299 1.1319.299ZM69.2625 19h-3.0541V8.535h3.0541V19Zm0-5.5315-.0854-1.0892c.0569-.4841.1637-.9611.3203-1.4309.1566-.4841.3702-.9255.6407-1.32419.2848-.39867.6336-.7119 1.0465-.93971.4129-.24205.897-.36307 1.4523-.36307.7831 0 1.374.23492 1.7727.70478.4129.45562.6193 1.09629.6193 1.92219 0 .5552-.0712 1.0536-.2135 1.495-.1282.4271-.2563.7403-.3845.9397h-2.9473c.1994-.1994.3702-.4628.5126-.7902.1566-.3275.2349-.6408.2349-.9398 0-.299-.0712-.5481-.2135-.7475-.1424-.1993-.3845-.299-.7262-.299-.3417 0-.6692.1211-.9824.3631-.3132.2278-.5695.5553-.7689.9824-.1851.4272-.2776.9326-.2776 1.5164Zm10.0737-6.17222h-3.054V4.69071h3.054v2.60557Zm0 11.70372h-3.054V8.535h3.054V19Zm11.9203 0h-3.0541v-6.2363c0-.6407-.1139-1.1462-.3417-1.5163-.2135-.3702-.6763-.5553-1.3882-.5553-.4841 0-.8685.0925-1.1533.2776-.2705.1851-.4698.4627-.598.8329-.1139.3702-.1708.8401-.1708 1.4096l-.0855-1.0892c.0712-.6407.235-1.253.4913-1.8367.2562-.58378.6336-1.05364 1.1319-1.40959.5126-.37019 1.1675-.55528 1.9648-.55528.9967 0 1.7798.29188 2.3493.87564.5696.58376.8543 1.41673.8543 2.49883V19Zm-6.7061 0h-3.0541V8.535h3.0541V19ZM95.72 22.8443c-.5268 0-1.0251-.0712-1.495-.2136-.4699-.1281-.8899-.3061-1.2601-.5339-.3559-.2136-.6549-.4414-.897-.6834l1.2174-2.5629c.3275.3844.6834.6977 1.0678.9397.3987.2421.8258.3631 1.2815.3631.3986 0 .7261-.0926.9824-.2777.2563-.1708.4699-.5054.6407-1.0037l.4058-1.1106.8116.5553h-2.8619L92.2174 8.535h3.3745l1.495 4.9335.7688 3.5026.7902-3.5026L100.12 8.535h3.438l-3.7588 11.1057c-.4129 1.1533-.9539 1.972-1.6231 2.4561-.655.4983-1.4737.7475-2.4561.7475Z"/></svg>