<svg width="180" height="180" viewBox="0 0 180 180" fill="none" xmlns="http://www.w3.org/2000/svg">
<g clip-path="url(#clip0_404_8)">
<rect width="180" height="180" fill="black"/>
<path d="M110.53 48.8685C104.477 38.3834 91.0694 34.7909 80.5843 40.8445C70.0992 46.8981 66.5067 60.3053 72.5603 70.7904C77.6082 79.5335 87.7692 83.484 97.0855 81.0454L112.455 107.665C108.546 111.624 106.133 117.064 106.133 123.067C106.133 135.174 115.947 144.989 128.055 144.989C140.162 144.989 149.977 135.174 149.977 123.067C149.977 110.96 140.162 101.145 128.055 101.145C126.139 101.145 124.281 101.391 122.51 101.852L107.145 75.2393C113.918 68.3906 115.579 57.6132 110.53 48.8685Z" fill="#FCFCFC"/>
<path d="M54.9452 145.096C67.0523 145.096 76.8671 135.281 76.8671 123.174C76.8671 111.067 67.0523 101.252 54.9452 101.252C42.8381 101.252 33.0233 111.067 33.0233 123.174C33.0233 135.281 42.8381 145.096 54.9452 145.096Z" fill="#FCFCFC"/>
</g>
<defs>
<clipPath id="clip0_404_8">
<rect width="180" height="180" fill="white"/>
</clipPath>
</defs>
</svg>
